<?xml version="1.0" encoding="utf-8"?>
<!-- Generator: Adobe Illustrator 25.2.2, SVG Export Plug-In . SVG Version: 6.00 Build 0)  -->
<svg version="1.1" id="Layer_1" xmlns="http://www.w3.org/2000/svg" xmlns:xlink="http://www.w3.org/1999/xlink" x="0px" y="0px"
	 viewBox="0 0 354.3 198.4" style="enable-background:new 0 0 354.3 198.4;" xml:space="preserve">
<style type="text/css">
	.st0{fill:#434FA2;}
</style>
<g>
	<polygon class="st0" points="18.2,55.2 18.2,172.2 49.8,172.2 49.8,55.2 18.2,55.2 	"/>
	<path class="st0" d="M101.8,91.7c0-10,13.5-10.9,17.5-10.9h67.1l5.9-25.4h-73C85.2,55.5,70,75.4,70,95.1
		c0,51.9,100.5,29.6,100.5,52.9c0,10-13.5,10.7-17.8,10.7H70v25.4h82.7c34.1,0,49.3-19.9,49.3-39.3C202,92.4,101.8,114.7,101.8,91.7
		L101.8,91.7z"/>
	<path class="st0" d="M302,30.5c0,9.6,7.7,16.9,16.9,16.9c9.1,0,16.8-7.2,16.8-16.9c0-9.5-7.7-16.7-16.8-16.7
		C309.7,13.9,302,21.1,302,30.5L302,30.5z M305,30.5c0-8,6-14.2,13.8-14.2c7.8,0,13.8,6.2,13.8,14.2c0,8.2-6,14.4-13.8,14.4
		C311.1,44.9,305,38.7,305,30.5L305,30.5z M312.4,40.4h3V32h3.2l5.3,8.4h3.3l-5.6-8.7c2.9-0.3,5.2-1.8,5.2-5.3
		c0-3.8-2.2-5.6-6.9-5.6h-7.6V40.4L312.4,40.4z M315.4,23.3h4c2.1,0,4.3,0.4,4.3,3c0,3.1-2.5,3.2-5.2,3.2h-3.2V23.3L315.4,23.3z"/>
	<path class="st0" d="M220.2,172h30.4v-67.8c7.9-21.5,21.8-27.6,32.9-27.6c21.8,0,22,22.1,22,39.5V172h30.2v-55.8
		c0.9-43.1-13.4-63.7-46-63.7c-15,0-28.8,4.7-39,13.8V13.9h-30.4V172L220.2,172z"/>
</g>
</svg>
