<?xml version="1.0" encoding="UTF-8" standalone="no"?>
<!-- Created with Inkscape (http://www.inkscape.org/) -->

<svg
   version="1.1"
   id="svg2"
   width="1971.2533"
   height="268.76001"
   viewBox="0 0 1971.2533 268.76001"
   sodipodi:docname="ISH ONCOURSE Logo Black.eps"
   xmlns:inkscape="http://www.inkscape.org/namespaces/inkscape"
   xmlns:sodipodi="http://sodipodi.sourceforge.net/DTD/sodipodi-0.dtd"
   xmlns="http://www.w3.org/2000/svg"
   xmlns:svg="http://www.w3.org/2000/svg">
  <defs
     id="defs6">
    <clipPath
       clipPathUnits="userSpaceOnUse"
       id="clipPath18">
      <path
         d="m 90.0078,0 h 3721.77 V 2015.72 H 90.0078 Z"
         id="path16" />
    </clipPath>
    <clipPath
       clipPathUnits="userSpaceOnUse"
       id="clipPath34">
      <path
         d="m 3831.78,0 h 10862.6 V 2015.72 H 3831.78 Z"
         id="path32" />
    </clipPath>
  </defs>
  <sodipodi:namedview
     id="namedview4"
     pagecolor="#ffffff"
     bordercolor="#000000"
     borderopacity="0.25"
     inkscape:showpageshadow="2"
     inkscape:pageopacity="0.0"
     inkscape:pagecheckerboard="0"
     inkscape:deskcolor="#d1d1d1" />
  <g
     id="g8"
     inkscape:groupmode="layer"
     inkscape:label="ink_ext_XXXXXX"
     transform="matrix(1.3333333,0,0,-1.3333333,0,268.76)">
    <g
       id="g10"
       transform="scale(0.1)">
      <g
         id="g12">
        <g
           id="g14"
           clip-path="url(#clipPath18)">
          <path
             d="M 363.457,1428.81 V 258.961 H 679.16 V 1428.81 H 363.457"
             style="fill:#231f20;fill-opacity:1;fill-rule:nonzero;stroke:none"
             id="path20" />
          <path
             d="m 1199.07,1063.69 c 0,99.54 135.05,109.02 175.33,109.02 h 670.55 l 59.24,253.59 H 1374.4 c -341.19,0 -492.837,-199.08 -492.837,-395.79 0,-519.041 1004.637,-296.248 1004.637,-528.522 0,-99.539 -135.06,-106.648 -177.71,-106.648 H 881.563 V 141.75 h 826.927 c 341.2,0 492.85,199.082 492.85,393.422 0,521.408 -1002.27,298.629 -1002.27,528.518"
             style="fill:#231f20;fill-opacity:1;fill-rule:nonzero;stroke:none"
             id="path22" />
          <path
             d="m 3201.26,1675.79 c 0,-96.36 77.1,-168.53 168.99,-168.53 91.43,0 168.08,72.17 168.08,168.53 0,94.58 -76.65,166.75 -168.08,166.75 -91.89,0 -168.99,-72.17 -168.99,-166.75 z m 30.48,0 c 0,80.24 60.07,142.09 138.51,142.09 77.54,0 137.6,-61.85 137.6,-142.09 0,-82.02 -60.06,-143.88 -137.6,-143.88 -78.44,0 -138.51,61.86 -138.51,143.88 z m 73.06,-98.61 h 30.48 v 84.27 h 32.28 l 53.34,-84.27 h 32.72 l -56.03,86.51 c 29.13,3.14 51.54,17.93 51.54,53.34 0,37.65 -21.96,56.03 -68.57,56.03 h -75.76 z m 30.48,171.23 h 40.34 c 20.62,0 43.03,-4.03 43.03,-30.03 0,-30.93 -24.65,-32.28 -51.54,-32.28 h -31.83 v 62.31"
             style="fill:#231f20;fill-opacity:1;fill-rule:nonzero;stroke:none"
             id="path24" />
          <path
             d="m 2383.74,261.27 h 303.85 v 677.679 c 79.36,214.601 217.69,275.601 328.8,275.601 217.68,0 219.95,-221.378 219.95,-395.32 V 261.27 h 301.59 v 557.96 c 9.07,431.46 -133.79,637.02 -460.32,637.02 -149.66,0 -287.98,-47.43 -390.02,-137.79 v 524.08 H 2383.74 V 261.27"
             style="fill:#231f20;fill-opacity:1;fill-rule:nonzero;stroke:none"
             id="path26" />
        </g>
      </g>
      <g
         id="g28">
        <g
           id="g30"
           clip-path="url(#clipPath34)">
          <path
             d="m 5403.01,852.801 c 0,356.959 -264.33,605.479 -641.62,605.479 -379.55,0 -646.14,-248.52 -646.14,-605.479 0,-370.512 259.81,-619.02 646.14,-619.02 384.07,0 641.62,248.508 641.62,619.02 z m -302.74,2.258 c 0,-223.661 -119.74,-379.547 -338.88,-379.547 -219.15,0 -343.4,155.886 -343.4,379.547 0,203.331 128.77,361.481 343.4,361.481 212.37,0 338.88,-158.15 338.88,-361.481"
             style="fill:#231f20;fill-opacity:1;fill-rule:nonzero;stroke:none"
             id="path36" />
          <path
             d="M 5877.01,263.148 V 940.91 c 79.08,214.63 216.89,275.63 327.59,275.63 216.89,0 219.15,-221.399 219.15,-395.36 V 263.148 h 300.47 V 821.18 c 9.04,431.51 -133.29,637.1 -458.62,637.1 -164.92,0 -316.29,-58.74 -420.22,-169.44 l -56.48,140.07 H 5574.28 V 263.148 h 302.73"
             style="fill:#231f20;fill-opacity:1;fill-rule:nonzero;stroke:none"
             id="path38" />
          <path
             d="m 8124.53,649.469 c -137.82,-112.957 -239.48,-164.918 -415.7,-164.918 -325.33,0 -510.59,246.258 -510.59,582.879 0,309.52 189.78,555.77 510.59,555.77 189.77,0 329.85,-79.07 436.03,-210.11 l 173.96,216.89 c -169.44,169.44 -372.77,244 -612.25,244 -487.99,0 -829.14,-332.11 -829.14,-808.81 0,-497.029 334.37,-831.389 829.14,-831.389 239.48,0 440.55,79.071 585.14,216.879 l -167.18,198.809"
             style="fill:#231f20;fill-opacity:1;fill-rule:nonzero;stroke:none"
             id="path40" />
          <path
             d="m 9619.73,852.801 c 0,356.959 -264.32,605.479 -641.62,605.479 -379.55,0 -646.13,-248.52 -646.13,-605.479 0,-370.512 259.81,-619.02 646.13,-619.02 384.07,0 641.62,248.508 641.62,619.02 z M 9317,855.059 c 0,-223.661 -119.74,-379.547 -338.89,-379.547 -219.14,0 -343.4,155.886 -343.4,379.547 0,203.331 128.78,361.481 343.4,361.481 212.37,0 338.89,-158.15 338.89,-361.481"
             style="fill:#231f20;fill-opacity:1;fill-rule:nonzero;stroke:none"
             id="path42" />
          <path
             d="m 10292.6,233.781 c 368.2,0 528.6,203.328 519.6,637.098 v 558.031 h -300.5 V 870.879 c 0,-173.957 -2.3,-395.367 -219.1,-395.367 -214.7,0 -216.9,221.41 -216.9,395.367 V 1428.91 H 9772.93 V 870.879 c -9.04,-433.77 153.63,-637.098 519.67,-637.098"
             style="fill:#231f20;fill-opacity:1;fill-rule:nonzero;stroke:none"
             id="path44" />
          <path
             d="m 11306.2,1291.09 -56.5,137.82 h -214.6 V 263.148 h 302.7 V 940.91 c 81.4,212.37 275.7,214.63 388.6,214.63 v 302.74 c -164.9,0 -316.3,-58.74 -420.2,-167.19"
             style="fill:#231f20;fill-opacity:1;fill-rule:nonzero;stroke:none"
             id="path46" />
          <path
             d="m 12154.9,1114.88 c 0,94.88 128.8,103.92 167.2,103.92 h 639.4 l 56.4,241.74 h -695.8 c -325.3,0 -469.9,-189.78 -469.9,-377.29 0,-494.77 957.9,-282.41 957.9,-503.809 0,-94.89 -128.8,-101.671 -169.5,-101.671 h -788.4 V 236.039 h 788.4 c 325.4,0 470,189.77 470,375.031 0,497.03 -955.7,284.66 -955.7,503.81"
             style="fill:#231f20;fill-opacity:1;fill-rule:nonzero;stroke:none"
             id="path48" />
          <path
             d="m 14154.7,1776.53 h -155.5 v -26.24 h 61.6 V 1580 h 32.4 v 170.29 h 61.5 z m 256.2,0 h -49.6 l -57.7,-149.31 -58.7,149.31 h -50.1 V 1580 h 32.5 v 164.09 h 0.9 l 64.4,-164.09 h 20.5 l 64.4,164.09 h 1 V 1580 h 32.4 v 196.53"
             style="fill:#231f20;fill-opacity:1;fill-rule:nonzero;stroke:none"
             id="path50" />
          <path
             d="m 13829.6,1460.54 c -354.7,0 -621.3,-250.78 -621.3,-621.29 0,-354.699 264.3,-603.211 639.4,-603.211 V 477.77 c -174.6,0 -291.2,93.851 -325.7,255.128 h 717 v 0.172 h 166.7 c 45.2,456.36 -207.9,727.47 -576.1,727.47 z m 280.1,-515.11 h -267.4 v -0.18 H 13520 c 30.7,176.72 141.8,273.55 309.6,273.55 164.9,0 255.3,-99.41 280.1,-273.37"
             style="fill:#231f20;fill-opacity:1;fill-rule:nonzero;stroke:none"
             id="path52" />
        </g>
      </g>
    </g>
  </g>
</svg>
