<svg width="120" height="42" viewBox="0 0 120 42" xmlns="http://www.w3.org/2000/svg" class="global-header__servicensw-logo">
  <title>Service NSW</title>
  <path fill="#e31837" d="M20.8.2C9.3.2 0 9.5 0 21s9.3 20.8 20.8 20.8S41.6 32.5 41.6 21 32.3.2 20.8.2"></path>
  <path fill="#003e7e" d="M48.6 17.1l1.9-2.2c1.3 1.1 2.7 1.7 4.3 1.7 1.3 0 2.1-.5 2.1-1.4 0-.8-.5-1.2-2.9-1.8-2.9-.7-4.8-1.5-4.8-4.4 0-2.6 2.1-4.3 5.1-4.3 2.1 0 3.9.7 5.4 1.8L58 8.8c-1.3-.9-2.5-1.4-3.8-1.4-1.2 0-1.9.6-1.9 1.3 0 .9.6 1.3 3.1 1.9 2.9.8 4.6 1.8 4.6 4.3 0 2.9-2.2 4.5-5.3 4.5-2.1 0-4.3-.8-6.1-2.3M61.1 13.7c0-3.2 2.2-5.8 5.5-5.8 3.7 0 5.4 2.9 5.4 6v.8h-7.7c.3 1.4 1.3 2.2 2.7 2.2 1.1 0 1.8-.3 2.7-1.1l1.8 1.6c-1 1.3-2.5 2.1-4.5 2.1-3.5-.1-5.9-2.4-5.9-5.8m7.8-.9c-.2-1.4-1-2.3-2.3-2.3-1.3 0-2.1.9-2.4 2.3h4.7zM73.4 8.2h3.1v2.2c.7-1.5 1.7-2.5 3.5-2.4v3.3h-.2c-2.1 0-3.4 1.3-3.4 3.9v4.1h-3.1V8.2zM81.1 8.2h3.4l2.4 7.4 2.5-7.4h3.3l-4.4 11.1h-2.8zM93.9 4.2h3.3V7h-3.3V4.2zm0 4H97v11h-3.1v-11zM98.2 13.7c0-3.2 2.4-5.8 5.8-5.8 2.1 0 3.4.7 4.4 1.9l-1.9 2.1c-.7-.7-1.4-1.2-2.5-1.2-1.6 0-2.7 1.4-2.7 3 0 1.7 1.1 3 2.8 3 1.1 0 1.8-.5 2.5-1.2l1.8 1.9c-1.1 1.2-2.3 2-4.5 2-3.2 0-5.7-2.5-5.7-5.7M109.2 13.7c0-3.2 2.2-5.8 5.5-5.8 3.7 0 5.4 2.9 5.4 6v.8h-7.7c.3 1.4 1.3 2.2 2.7 2.2 1.1 0 1.8-.3 2.7-1.1l1.8 1.6c-1 1.3-2.5 2.1-4.5 2.1-3.5-.1-5.9-2.4-5.9-5.8m7.7-.9c-.2-1.4-1-2.3-2.3-2.3-1.3 0-2.1.9-2.4 2.3h4.7zM49.1 22.4H52l6.7 8.9v-8.9h3.1v14.4h-2.7l-6.9-9.1v9.1h-3.1zM63.9 34.7l1.9-2.2c1.3 1.1 2.6 1.7 4.3 1.7 1.3 0 2.1-.5 2.1-1.4 0-.8-.5-1.2-2.9-1.8-2.9-.7-4.8-1.5-4.8-4.4 0-2.6 2.1-4.3 5-4.3 2.1 0 3.9.7 5.3 1.8l-1.6 2.4c-1.3-.9-2.5-1.4-3.7-1.4-1.2 0-1.8.6-1.8 1.3 0 .9.6 1.3 3.1 1.9 2.9.8 4.6 1.8 4.6 4.3 0 2.9-2.2 4.5-5.3 4.5-2.3-.1-4.5-.9-6.2-2.4M76 22.4h3.4l2.9 9.8 3.3-9.8h2.7l3.2 9.8 3-9.8h3.3l-4.9 14.5h-2.8l-3.2-9.4-3.3 9.4h-2.7z"></path>
  <g fill="#fff">
    <path d="M33.8 25.6c-.2-.3-.6-.6-1-.6h-2.1c-.9 0-2.3.1-4.1.2-.1 2.1-.2 4.1-.5 6 1.4.5 2.9 1.2 4.4 2 2.9-3.7 3.4-6.2 3.5-6.8 0-.3-.1-.6-.2-.8M15.9 22.4c-.1-.2-.2-.5-.4-.5-.1 0-.2 0-.3.1 0 0-.1.1-.3.2-.2.2-.5.4-.9.7-.5.5-1.6 1.4-2.8 2.8-1.6 1.8-3.7 4.4-5 7.5 2.5 2.9 5.8 5.1 9.7 6.1.6-2.2.9-4.9.9-7.8 0-3.9-.6-7.3-.8-8.6-.1-.2-.1-.5-.1-.5M8.2 16.7l-.3-.6s0-.1-.1-.1l-.3-.6c-.7-1.3-1.3-2.4-1.7-3-.2-.3-.3-.5-.3-.5-.2-.3-.4-.3-.4-.3-.1 0-.3.1-.4.3 0 0-.1.2-.3.5l-.9 1.5c-.1.1-.1.2-.2.3 0 0-.1.1-.1.2v.1c-.2.1-.4.5-.7.9-.5 1.8-.8 3.7-.8 5.6 0 4.2 1.3 8 3.6 11.2 1.3-2.8 3.3-5.6 5.9-8.3-.9-2.7-2-5.2-3-7.2"></path>
    <path d="M25 19.2c0-.3-.1-.6-.1-.8v-.2-.1-.1-.1-.1-.2-.1-.1c-.1-.5-.3-.7-.7-.7-.1 0-.2 0-.4.1 0 0-.2.1-.5.2s-.8.3-1.3.6l-.2.1c-.3.2-.7.3-1 .5-1.4.7-2.7 1.4-4 2.2-.2.1-.4.2-.5.3.5.2.9.8 1 1.4v.1c.2 1.1 1 5 1 9.6 0 3-.3 5.7-1 8.1 1.2.2 2.4.3 3.6.3h.8c.1-.1.1-.2.2-.3 2.8-4.9 3.4-11.3 3.4-15.8 0-1.8-.1-3.4-.3-4.9M25.8 32.6c-.6 2.8-1.4 5.3-2.5 7.4 3.6-.5 6.8-1.9 9.5-4-.8-.5-1.8-1-2.9-1.6-1.4-.7-2.8-1.3-4.1-1.8M10 17.2c.7 1.6 1.4 3.2 2 4.8 1.5-1.2 3.1-2.2 4.9-3.3 0-.1 0-.2-.1-.3 0-.1-.1-.3-.1-.4 0-.1-.1-.3-.1-.4-.4-1.7-.8-3-1-3.8v-.1-.1-.1c-.1-.4-.4-.6-.7-.6h-.1c-.1 0-.2.1-.3.1 0 0-.7.5-1.9 1.3-.6.5-1.6 1.2-2.8 2.2 0 .2.1.4.2.7z"></path>
  </g>
</svg>