<?xml version="1.0" standalone="no"?>
<!DOCTYPE svg PUBLIC "-//W3C//DTD SVG 1.1//EN" "http://www.w3.org/Graphics/SVG/1.1/DTD/svg11.dtd" >
<svg xmlns="http://www.w3.org/2000/svg">
<metadata>
This is a custom SVG webfont generated by Font Squirrel.
Copyright   : Copyright c Mrten Nettelbladt 2006 All rights reserved
Designer    : Mrten Nettelbladt
Foundry     : Mrten Nettelbladt
</metadata>
<defs>
<font id="MisoBold" horiz-adv-x="851" >
<font-face units-per-em="2048" ascent="1638" descent="-410" />
<missing-glyph horiz-adv-x="393" />
<glyph unicode=" "  horiz-adv-x="393" />
<glyph unicode="&#x09;" horiz-adv-x="393" />
<glyph unicode="&#xa0;" horiz-adv-x="393" />
<glyph unicode="!" horiz-adv-x="409" d="M86 78q0 49 35 84t84 35t84 -35t35 -84t-35 -84t-84 -35t-84 35t-35 84zM106 385v819q0 41 29 70t70 29t69.5 -29t28.5 -70v-819q0 -41 -28.5 -69.5t-69.5 -28.5t-70 28.5t-29 69.5z" />
<glyph unicode="&#x22;" horiz-adv-x="720" d="M98 1040v205q0 41 29 69.5t70 28.5t69.5 -28.5t28.5 -69.5v-205q0 -41 -28.5 -69.5t-69.5 -28.5t-70 28.5t-29 69.5zM426 1040v205q0 41 28.5 69.5t69.5 28.5t70 -28.5t29 -69.5v-205q0 -41 -29 -69.5t-70 -28.5t-69.5 28.5t-28.5 69.5z" />
<glyph unicode="#" horiz-adv-x="937" d="M8 508q0 39 26.5 65.5t65.5 26.5h113v141h-113q-39 0 -65.5 28t-26.5 66.5t26.5 65.5t65.5 27h113v317q0 39 26.5 65.5t65.5 26.5t66.5 -26.5t27.5 -65.5v-317h142v317q0 39 26.5 65.5t65.5 26.5t66.5 -26.5t27.5 -65.5v-317h111q39 0 66.5 -27t27.5 -65.5t-27.5 -66.5 t-66.5 -28h-111v-141h111q39 0 66.5 -26.5t27.5 -65.5t-27.5 -66.5t-66.5 -27.5h-111v-357q0 -39 -27.5 -66.5t-66.5 -27.5t-65.5 27.5t-26.5 66.5v357h-142v-357q0 -39 -27.5 -66.5t-66.5 -27.5t-65.5 27.5t-26.5 66.5v357h-113q-39 0 -65.5 27.5t-26.5 66.5zM399 600h142 v141h-142v-141z" />
<glyph unicode="$" d="M114 281q11 39 46 61q22 13 46 13q13 0 27 -4q39 -11 60 -46q33 -55 94 -65q13 -2 25 -2q48 0 86 32q49 39 49 105q-2 29 -14.5 56.5t-36.5 45.5l-256 211q-57 45 -88 109.5t-31 145.5q0 67 27 128q30 66 85 113q25 23 53.5 38t59.5 25v80q0 41 28.5 69.5t69.5 28.5 t70 -28.5t29 -69.5v-82q57 -16 104 -54t76 -91q15 -23 15 -48q0 -13 -4 -26q-11 -39 -46 -61q-22 -13 -47 -14q-13 0 -27 4q-39 11 -61 46q-29 51 -88 62q-12 2 -24 2q-45 0 -81 -31q-47 -39 -43 -98q0 -57 45 -96l259 -211q57 -47 88.5 -112.5t33.5 -139.5 q0 -76 -30.5 -142.5t-85.5 -113.5q-27 -23 -56.5 -39t-60.5 -27v-80q0 -41 -28.5 -69.5t-69.5 -28.5t-70 28.5t-29 69.5v80q-125 39 -190 152q-13 22 -13 46q0 14 4 28z" />
<glyph unicode="%" horiz-adv-x="1214" d="M49 1061q0 55 21.5 105.5t58.5 87t86 58t107 21.5q55 0 105 -21.5t87 -58t58.5 -87t21.5 -105.5q0 -57 -21.5 -106.5t-58.5 -86.5t-87 -58.5t-105 -21.5q-57 0 -106.5 21.5t-86.5 58.5t-58.5 86.5t-21.5 106.5zM225 1061q0 -41 28 -68.5t68.5 -27.5t68.5 27.5t28 68.5 t-28 68.5t-68.5 27.5t-68.5 -27.5t-28 -68.5zM228 25q-6 16 -5 32q0 22 10 43l574 1188q16 37 55 50q16 6 32 6q22 0 44 -11q37 -16 50 -55q6 -16 6 -32q0 -22 -11 -44l-573 -1188q-16 -37 -56 -50q-16 -6 -32 -5q-22 0 -43 10q-38 17 -51 56zM623 242q0 55 21.5 105t58 87 t86 58.5t106.5 21.5q55 0 105.5 -21.5t87 -58.5t58 -87t21.5 -105q0 -57 -21.5 -106.5t-58 -86.5t-87 -58.5t-105.5 -21.5q-57 0 -106.5 21.5t-86 58.5t-58 86.5t-21.5 106.5zM799 242q0 -41 27.5 -69t68.5 -28t68.5 28t27.5 69t-27.5 68.5t-68.5 27.5t-68.5 -27.5 t-27.5 -68.5z" />
<glyph unicode="&#x26;" horiz-adv-x="1009" d="M72 250q-5 29 -5 57q0 41 10 81q17 69 60 126l150 193l-125 159l-6 8q-49 75 -50 164q0 80 39 150q41 76 116 118q68 38 146 38q8 0 15 -1q86 -4 156.5 -50t105.5 -124q30 -64 30 -131q0 -15 -1 -30q-8 -84 -62 -152l-116 -149l139 -183l24 -28l37 63q23 35 62 45 q12 3 24 3q26 0 49 -15q35 -23 45 -62q3 -13 4 -25q0 -25 -14 -48l-78 -129l146 -191q21 -28 21 -61q0 -6 -1 -11q-4 -40 -37 -65q-27 -20 -59 -20q-7 0 -14 1q-41 5 -66 37l-98 129l-14 -22q-35 -59 -93.5 -100t-128.5 -58q-38 -9 -76 -9q-31 0 -62 6q-69 13 -128 54 t-97 100.5t-48 131.5zM264 281q10 -61 64 -101q37 -26 77 -25q18 0 37 5q61 12 95 67l53 86l-72 93l-106 139l-119 -152q-31 -41 -31 -87q0 -12 2 -25zM303 1036q0 -29 16 -53l93 -117l84 109q23 30 23 64q0 23 -11 46q-29 57 -94 62h-7q-25 0 -48 -13q-26 -15 -42 -42 q-14 -25 -14 -56z" />
<glyph unicode="'" horiz-adv-x="393" d="M98 1040v205q0 41 29 69.5t70 28.5t69.5 -28.5t28.5 -69.5v-205q0 -41 -28.5 -69.5t-69.5 -28.5t-70 28.5t-29 69.5z" />
<glyph unicode="(" horiz-adv-x="548" d="M82 651q0 221 70 428q74 211 213 391q25 31 64 36q7 1 14 1q32 0 59 -20q33 -27 38 -67q1 -6 0 -12q0 -33 -22 -60q-59 -76 -104 -158t-76 -174q-59 -182 -59 -365q0 -186 59 -364q31 -92 76 -174t104 -158q22 -27 22 -60v-13q-5 -40 -38 -66q-28 -21 -62 -21h-11 q-40 4 -64 37q-139 180 -213 391q-70 207 -70 428z" />
<glyph unicode=")" horiz-adv-x="550" d="M9 -97q-1 7 -1 13q0 32 21 59q121 154 182 332q59 178 59 365q0 182 -59 364q-61 178 -182 332q-20 27 -21 59q0 7 1 14q5 40 38 66q27 20 59 21q7 0 14 -1q40 -5 64 -36q141 -182 211 -391q72 -211 72 -428t-72 -428q-70 -209 -211 -391q-25 -33 -64 -37q-6 -1 -11 -1 q-33 0 -62 21q-33 27 -38 67z" />
<glyph unicode="*" d="M70 809q10 37 43 55l127 74l-127 74q-33 18 -43 55q-3 12 -4 24q0 24 14 48q18 33 55 43q12 3 25 3q24 0 47 -14l127 -71v145q0 39 26.5 65.5t65.5 26.5t66.5 -26.5t27.5 -65.5v-145l125 71q23 14 47 14q12 0 25 -3q37 -10 55 -43q14 -23 14 -48q0 -12 -4 -24 q-10 -37 -43 -55l-127 -74l127 -74q33 -18 43 -55q3 -12 4 -24q0 -24 -14 -48q-18 -35 -55 -44q-11 -3 -23 -3q-25 0 -49 15l-125 71v-145q0 -39 -27.5 -66.5t-66.5 -27.5t-65.5 27.5t-26.5 66.5v145l-127 -71q-24 -14 -49 -15q-11 0 -23 3q-37 9 -55 44q-14 23 -14 48 q1 12 4 24z" />
<glyph unicode="+" d="M82 590q0 41 28.5 69.5t69.5 28.5h148v148q0 41 28.5 69.5t69.5 28.5t69.5 -28.5t28.5 -69.5v-148h148q41 0 69.5 -28.5t28.5 -69.5t-28.5 -69.5t-69.5 -28.5h-148v-148q0 -41 -28.5 -69.5t-69.5 -28.5t-69.5 28.5t-28.5 69.5v148h-148q-41 0 -69.5 28.5t-28.5 69.5z" />
<glyph unicode="," horiz-adv-x="393" d="M72 98q0 39 26.5 65.5t65.5 26.5h65q39 0 67 -26.5t28 -65.5v-98q0 -61 -34 -111.5t-89 -72.5q-19 -8 -38 -9q-17 0 -34 8q-35 15 -51 50q-8 19 -9 37q0 17 8 35q15 35 52 51q8 4 8 12v8q-29 10 -47 34.5t-18 55.5z" />
<glyph unicode="-" d="M82 590q0 41 28.5 69.5t69.5 28.5h492q41 0 69.5 -28.5t28.5 -69.5t-28.5 -69.5t-69.5 -28.5h-492q-41 0 -69.5 28.5t-28.5 69.5z" />
<glyph unicode="." horiz-adv-x="393" d="M78 78q0 49 34.5 84t84 35t84 -35t34.5 -84t-34.5 -84t-84 -35t-84 35t-34.5 84z" />
<glyph unicode="/" d="M88 8l492 1352q14 39 51 56q20 10 41 10q17 0 35 -7q39 -14 56 -51q9 -19 9 -38q0 -18 -8 -36l-492 -1351q-14 -39 -50 -57q-20 -10 -40 -9q-17 0 -35 6q-39 14 -56 50q-10 20 -9 41q0 16 6 34z" />
<glyph unicode="0" d="M82 303v696q0 72 26.5 134.5t73.5 109.5t109.5 73.5t134.5 26.5q70 0 133.5 -26.5t109.5 -73.5t73.5 -109.5t27.5 -134.5v-696q0 -72 -27.5 -134.5t-73.5 -109.5t-109.5 -73.5t-133.5 -26.5q-72 0 -134.5 26.5t-109.5 73.5t-73.5 109.5t-26.5 134.5zM279 303 q0 -61 43 -104t104 -43q59 0 103 43t44 104v696q0 61 -44 104.5t-103 43.5q-61 0 -104 -43t-43 -105v-696z" />
<glyph unicode="1" d="M131 999q0 41 29 70l246 246q30 30 65 30q20 0 41 -10q29 -10 45 -35.5t16 -54.5v-1188q0 -41 -28.5 -69.5t-69.5 -28.5t-69.5 28.5t-28.5 69.5v951q-14 -12 -28 -27l-23 -25q-12 -14 -27 -26q-29 -29 -70 -29t-69.5 28.5t-28.5 69.5z" />
<glyph unicode="2" d="M93 1098q-4 14 -4 27q0 24 13 46q70 121 207 160q45 13 91 13q20 0 41 -3q67 -8 126 -41q123 -66 164 -202q14 -49 14 -99q0 -17 -2 -33q-6 -67 -36 -126l-140 -265l-58 -112l-59 -112l-56 -102l-44 -85h297q41 0 69.5 -29t28.5 -69.5t-28.5 -69.5t-69.5 -29h-459 q-53 0 -84 47q-14 24 -14 51q0 22 10 46l432 819q16 34 17 69q0 22 -6 43q-18 57 -70 86q-34 18 -70 19q-21 0 -43 -6q-55 -16 -88 -68q-20 -35 -59 -46q-14 -4 -27 -4q-24 0 -47 13q-35 23 -46 62z" />
<glyph unicode="3" d="M65 205q11 39 46 61q22 13 46 13q13 0 27 -4q39 -11 62 -46q25 -43 70 -62q28 -12 58 -12q19 0 38 5q47 14 77.5 53t30.5 90v123q0 61 -43 104t-104 43q-41 0 -70 29t-29 70t29 69.5t70 28.5q61 0 104 43t43 104v82q0 49 -30.5 89t-77.5 53q-21 6 -42 6q-28 0 -54 -11 q-46 -19 -70 -63q-23 -35 -62 -46q-14 -4 -27 -4q-24 0 -46 13q-35 23 -46 62q-4 14 -4 27q0 24 13 46q29 51 71.5 88t94 58.5t108.5 24.5q10 1 20 1q47 0 93 -12q57 -14 104 -46t81 -76t52.5 -98t18.5 -112v-82q0 -72 -27.5 -135t-77.5 -110q49 -47 77 -110.5t28 -135.5 v-123q0 -59 -18.5 -112.5t-52.5 -97.5t-81 -75.5t-104 -46.5q-44 -13 -90 -13q-11 0 -23 1q-57 4 -108.5 25.5t-94.5 58.5t-71 88q-13 22 -13 47q0 13 4 27z" />
<glyph unicode="4" d="M57 375l287 901q12 39 48 57q22 11 45 11q16 0 32 -5q31 -10 49.5 -36.5t18.5 -57.5q0 -10 -5 -31l-100 -315l-41 -130l-41 -127l-37 -113l-26 -87h176v189q0 41 28.5 69.5t69.5 28.5t69.5 -28.5t28.5 -69.5v-189h66q41 0 69.5 -28.5t28.5 -69.5t-28.5 -69.5t-69.5 -28.5 h-66v-189q0 -41 -28.5 -69.5t-69.5 -28.5t-69.5 28.5t-28.5 69.5v189h-311q-51 0 -80 41q-19 25 -19 55q-1 16 4 33z" />
<glyph unicode="5" d="M113 651v586q0 41 28.5 69.5t69.5 28.5h426q41 0 69.5 -28.5t28.5 -69.5t-28.5 -69.5t-69.5 -28.5h-328v-287q57 20 115 20q44 0 90 -12q55 -14 102.5 -46t81 -76t52 -98t18.5 -112v-225q0 -59 -18.5 -112.5t-52 -97.5t-81 -75.5t-102.5 -46.5q-47 -13 -93 -12 q-66 0 -128 26q-106 44 -166 146q-15 23 -15 48q0 13 4 26q11 39 46 61q22 13 46 13q13 0 28 -4q39 -11 61 -46q25 -43 71 -62q28 -12 57 -12q19 0 38 5q47 14 77.5 53t30.5 90v225q0 49 -30.5 89t-77.5 53q-21 6 -41 6q-28 0 -54 -11q-46 -19 -71 -63q-16 -29 -47 -42 q-17 -8 -36 -7q-14 0 -28 4q-33 8 -53 33.5t-20 60.5z" />
<glyph unicode="6" d="M100 303v696q0 57 18.5 111.5t52.5 98.5t81 76t104 46q46 12 93 12q10 0 20 -1q57 -3 108.5 -24.5t94.5 -58t71 -88.5q13 -22 14 -46q0 -13 -4 -27q-11 -39 -46 -62q-22 -13 -47 -13q-13 0 -27 4q-39 11 -60 46q-27 43 -72 63q-27 11 -54 11q-20 0 -39 -6 q-49 -12 -80 -52t-31 -90v-180q72 33 147 33q72 0 134.5 -26.5t109.5 -73.5t73.5 -109.5t26.5 -134.5v-205q0 -72 -26.5 -134.5t-73.5 -109.5t-109.5 -73.5t-134 -26.5t-134 26.5t-108.5 73.5t-74 109.5t-28 134.5zM297 303q0 -61 43 -104t104.5 -43t104.5 43t43 104v205 q0 61 -43 104t-104.5 43t-104.5 -43t-43 -104v-205z" />
<glyph unicode="7" d="M76 1073v164q0 41 28.5 69.5t69.5 28.5h492q47 0 77 -37q21 -27 22 -59q0 -12 -3 -25l-287 -1179q-10 -41 -44 -63q-23 -15 -49 -14q-12 0 -26 3q-35 10 -55 36t-20 60q0 6 1 11.5t3 11.5l110 455l43 182l42 173l35 146q15 66 26 103h-269v-66q0 -41 -28.5 -69.5 t-69.5 -28.5t-69.5 28.5t-28.5 69.5z" />
<glyph unicode="8" d="M82 303v123q0 72 28.5 135.5t75.5 110.5q-47 47 -75.5 110.5t-28.5 135.5v81q0 72 27.5 134.5t73.5 109.5t108.5 73.5t134.5 26.5t134.5 -26.5t109.5 -73.5t73.5 -109.5t26.5 -134.5v-81q0 -72 -27.5 -135.5t-74.5 -110.5q47 -47 74.5 -110.5t27.5 -135.5v-123 q0 -72 -26.5 -134.5t-73.5 -109.5t-109.5 -73.5t-134.5 -26.5t-134.5 26.5t-108.5 73.5t-73.5 109.5t-27.5 134.5zM279 918q0 -61 44 -104.5t103 -43.5q61 0 104 43t43 105v81q0 61 -43 104.5t-104 43.5q-59 0 -103 -43t-44 -105v-81zM279 303q0 -61 44 -104t103 -43 q61 0 104 43t43 104v123q0 61 -43 104t-104 43q-59 0 -103 -43t-44 -104v-123z" />
<glyph unicode="9" d="M64 795v204q0 72 27.5 134.5t73.5 109.5t108.5 73.5t134 26.5t134 -26.5t109.5 -73.5t74 -109.5t27 -134.5v-696q0 -59 -18.5 -112.5t-52.5 -97.5t-81 -75.5t-102 -46.5q-44 -13 -90 -13q-11 0 -23 1q-57 4 -108.5 25.5t-94.5 58.5t-71 88q-14 23 -14 48q0 13 3 26 q10 39 45 61q22 13 47 13q14 0 28 -4q40 -11 61 -46q25 -43 71 -62q29 -12 58 -12l36 5q47 14 78 53t31 90v180q-70 -33 -147 -32q-72 0 -134.5 26.5t-108.5 73.5t-73.5 109.5t-27.5 134.5zM260 795q0 -61 44 -104.5t104 -43.5q61 0 104 43t43 105v204q0 61 -43 104.5 t-104 43.5q-59 0 -103.5 -43t-44.5 -105v-204z" />
<glyph unicode=":" horiz-adv-x="393" d="M78 78q0 49 34.5 84t84 35t84 -35t34.5 -84t-34.5 -84t-84 -35t-84 35t-34.5 84zM78 856q0 49 34.5 84t84 35t84 -35t34.5 -84t-34.5 -84t-84 -35t-84 35t-34.5 84z" />
<glyph unicode=";" horiz-adv-x="393" d="M72 98q0 39 26.5 65.5t65.5 26.5h65q39 0 67 -26.5t28 -65.5v-98q0 -61 -34 -111.5t-89 -72.5q-19 -8 -38 -9q-17 0 -34 8q-35 15 -51 50q-8 19 -9 37q0 17 8 35q15 35 52 51q8 4 8 12v8q-29 10 -47 34.5t-18 55.5zM78 856q0 49 34.5 84t84 35t84 -35t34.5 -84t-34.5 -84 t-84 -35t-84 35t-34.5 84z" />
<glyph unicode="&#x3c;" d="M66 590q0 47 34 76l492 409q27 23 61 23h11q41 -4 67 -35q23 -29 23 -64q0 -45 -37 -75l-154 -129l-132 -111l-114 -94l114 -95l132 -110l154 -129q37 -31 37 -76q0 -35 -23 -63q-27 -31 -67 -35q-5 -1 -11 -1q-34 0 -61 23l-492 410q-34 29 -34 76z" />
<glyph unicode="=" d="M82 426q0 41 28.5 69.5t69.5 28.5h492q41 0 69.5 -28.5t28.5 -69.5t-28.5 -69.5t-69.5 -28.5h-492q-41 0 -69.5 28.5t-28.5 69.5zM82 754q0 41 28.5 69.5t69.5 28.5h492q41 0 69.5 -28.5t28.5 -69.5t-28.5 -70t-69.5 -29h-492q-41 0 -69.5 29t-28.5 70z" />
<glyph unicode="&#x3e;" d="M98 180q0 45 35 76l156 129l246 205l-114 94l-132 111l-156 129q-35 31 -35 75q0 35 23 64q27 31 66.5 35t72.5 -23l492 -409q35 -29 34.5 -76t-34.5 -76l-492 -410q-33 -27 -73 -22.5t-66 35.5q-23 28 -23 63z" />
<glyph unicode="?" horiz-adv-x="731" d="M29 1098q-3 13 -4 25q0 25 14 48q37 66 97.5 108t131.5 58q34 7 69 7q39 0 77 -9q72 -16 131 -61q59 -47 95 -111.5t40 -138.5q1 -11 1 -21q0 -63 -22 -122q-25 -70 -77 -123l-105 -105q-43 -47 -43 -104v-164q0 -41 -28.5 -69.5t-69.5 -28.5t-69.5 28.5t-28.5 69.5v164 q0 68 26.5 130t73.5 112l104 104q23 23 34 52.5t7 62.5q-4 66 -57 106q-41 32 -89 32q-14 0 -30 -3q-31 -8 -56.5 -25.5t-41.5 -46.5q-20 -35 -61 -46q-14 -4 -27 -4q-25 0 -47 13q-35 23 -45 62zM217 78q0 49 35 84t84 35t84 -35t35 -84t-35 -84t-84 -35t-84 35t-35 84z " />
<glyph unicode="@" horiz-adv-x="1564" d="M96 283v368q0 137 51.5 261t149.5 222.5t223 150.5t262 52q139 0 263 -52t222.5 -150.5t149.5 -222.5t51 -261v-381q0 -61 -23.5 -115.5t-63.5 -94.5t-94 -63.5t-116 -23.5h-409q-61 0 -115.5 23.5t-94.5 63.5t-63.5 94.5t-23.5 116t23.5 115.5t63.5 94t94 63.5t116 23.5 h112v109q0 33 -18 59.5t-51 40.5q-19 8 -40 8q-12 0 -25 -3q-34 -7 -58 -29q-28 -28 -63 -28h-3q-37 1 -65 28q-27 29 -27 65q0 39 29 66q63 61 150 80q30 6 60 6q56 0 111 -23q41 -16 75 -42.5t59 -63.5q27 -37 39 -79t12 -85v-518h112q47 0 80 32.5t33 79.5v381 q0 100 -37 191.5t-108.5 163t-162.5 109.5t-194 38q-100 0 -191 -38t-163 -109.5t-109.5 -162.5t-37.5 -192v-368q0 -102 37.5 -193.5t109.5 -163t163 -108.5t191 -37h226q39 0 65.5 -27.5t26.5 -64.5q0 -39 -26.5 -65.5t-65.5 -26.5h-226q-137 0 -262 51t-223 149.5 t-149.5 222.5t-51.5 263zM649 270q0 -47 33 -79.5t80 -32.5h112v225h-112q-47 0 -80 -33t-33 -80z" />
<glyph unicode="A" horiz-adv-x="884" d="M20 84l328 1188q8 33 34 52t60.5 19t60 -19t34.5 -52l327 -1188q4 -14 4 -28q0 -25 -13 -48q-19 -35 -58 -45q-14 -4 -28 -3q-25 0 -48 12q-35 19 -45 59q-8 25 -17 59l-19 69l-24 87h-348q-14 -47 -24.5 -87l-18.5 -69q-8 -35 -16 -59q-10 -39 -45 -59q-23 -13 -48 -12 q-13 0 -28 3q-39 10 -58 45q-13 23 -13 48q-1 14 3 28zM324 442h237l-59 220l-60 212l-59 -212z" />
<glyph unicode="B" horiz-adv-x="876" d="M106 66v1171q0 41 29 69.5t70 28.5h246q70 0 133 -26.5t109 -73.5t74 -109.5t28 -134.5v-73q0 -72 -29 -135.5t-76 -110.5q47 -47 76 -110.5t29 -135.5v-115q0 -72 -28 -134t-74 -109.5t-109.5 -74t-132.5 -26.5h-246q-41 0 -70 29t-29 70zM303 164h148q61 0 104 43 t43 104v115q0 61 -43 104t-104 43h-148v-409zM303 770h148q61 0 104 43t43 105v73q0 61 -43 104.5t-104 43.5h-148v-369z" />
<glyph unicode="C" horiz-adv-x="788" d="M82 303v696q0 57 18.5 111.5t52 98.5t81 76t102.5 46q47 13 93 13q66 0 128 -26q106 -44 166 -147q15 -23 15 -48q0 -13 -4 -25q-11 -39 -46 -62q-22 -13 -47 -13q-13 0 -27 4q-39 11 -61 46q-25 43 -71 63q-27 11 -54 11q-20 0 -41 -6q-47 -12 -77.5 -52t-30.5 -90v-696 q0 -51 30.5 -90t77.5 -53q19 -5 38 -5q29 0 57 12q46 19 71 62q23 35 61 46q14 4 27 4q24 0 47 -13q35 -23 46 -61q4 -13 4 -26q0 -25 -15 -48q-59 -102 -166 -146q-63 -26 -128 -26q-46 0 -93 12q-55 14 -102.5 46t-81 76t-52 97.5t-18.5 112.5z" />
<glyph unicode="D" horiz-adv-x="876" d="M106 66v1171q0 41 29 69.5t70 28.5h246q72 0 134 -26.5t109 -73.5t74 -109.5t27 -134.5v-680q0 -72 -27 -134t-74 -109.5t-109.5 -74t-133.5 -26.5h-246q-41 0 -70 29t-29 70zM303 164h148q61 0 104 43t43 104v680q0 61 -43 104.5t-104 43.5h-148v-975z" />
<glyph unicode="E" horiz-adv-x="753" d="M106 66v1171q0 41 29 69.5t70 28.5h409q41 0 70 -28.5t29 -69.5t-29 -69.5t-70 -28.5h-311v-369h270q41 0 70 -28.5t29 -69.5t-29 -70t-70 -29h-270v-409h311q41 0 70 -29t29 -69.5t-29 -69.5t-70 -29h-409q-41 0 -70 29t-29 70z" />
<glyph unicode="F" horiz-adv-x="737" d="M106 66v1171q0 41 29 69.5t70 28.5h409q41 0 70 -28.5t29 -69.5t-29 -69.5t-70 -28.5h-311v-369h270q41 0 70 -28.5t29 -69.5t-29 -70t-70 -29h-270v-507q0 -41 -28.5 -70t-69.5 -29t-70 29t-29 70z" />
<glyph unicode="G" horiz-adv-x="843" d="M82 303v696q0 57 18.5 111.5t52 98.5t81 76t104.5 46q46 12 92 12q10 0 21 -1q57 -3 108 -24.5t94 -58t72 -88.5q13 -22 13 -46q0 -13 -4 -27q-11 -39 -46 -62q-22 -13 -46 -13q-13 0 -28 4q-39 11 -59 46q-27 43 -73 63q-27 11 -53 11q-20 0 -40 -6q-49 -12 -79.5 -52 t-30.5 -90v-696q0 -61 44 -104t103 -43q61 0 104 43t43 104v229h-106q-41 0 -69.5 29t-28.5 70t28.5 69.5t69.5 28.5h205q41 0 69.5 -28.5t28.5 -69.5v-328q0 -72 -26.5 -134t-73.5 -109.5t-109.5 -74t-134.5 -26.5t-134.5 26.5t-108.5 74t-73.5 109.5t-27.5 134z" />
<glyph unicode="H" horiz-adv-x="901" d="M106 57v1188q0 41 29 69.5t70 28.5t69.5 -28.5t28.5 -69.5v-475h295v475q0 41 28.5 69.5t69.5 28.5t70 -28.5t29 -69.5v-1188q0 -41 -29 -69.5t-70 -28.5t-69.5 28.5t-28.5 69.5v516h-295v-516q0 -41 -28.5 -69.5t-69.5 -28.5t-70 28.5t-29 69.5z" />
<glyph unicode="I" horiz-adv-x="409" d="M106 57v1188q0 41 29 69.5t70 28.5t69.5 -28.5t28.5 -69.5v-1188q0 -41 -28.5 -69.5t-69.5 -28.5t-70 28.5t-29 69.5z" />
<glyph unicode="J" horiz-adv-x="681" d="M22 66q-4 14 -4 27q0 24 13 46q20 35 60 46q14 4 28 4q25 0 47 -13q35 -20 74 -20t73 20q35 18 54.5 52t19.5 75v942q0 41 28.5 69.5t69.5 28.5t70 -28.5t29 -69.5v-942q0 -92 -47.5 -172t-124.5 -127q-80 -45 -174 -45q-92 0 -170 45q-35 23 -46 62z" />
<glyph unicode="K" horiz-adv-x="862" d="M106 57v1188q0 41 29 69.5t70 28.5t69.5 -28.5t28.5 -69.5v-440l354 498q25 33 65 38q9 1 17 2q30 0 56 -18q35 -23 41 -62q1 -8 1 -16q0 -31 -20 -59l-307 -432l317 -656q9 -20 9 -41q0 -17 -6 -34q-13 -39 -50 -56q-21 -11 -43 -10q-16 0 -31 5q-38 13 -57 50l-268 559 l-78 -106v-410q0 -41 -28.5 -69.5t-69.5 -28.5t-70 28.5t-29 69.5z" />
<glyph unicode="L" horiz-adv-x="712" d="M106 66v1179q0 41 29 69.5t70 28.5t69.5 -28.5t28.5 -69.5v-1081h311q41 0 70 -29t29 -69.5t-29 -69.5t-70 -29h-409q-41 0 -70 29t-29 70z" />
<glyph unicode="M" horiz-adv-x="1064" d="M106 57v1188q0 35 20.5 61.5t55.5 34.5q12 3 24 3q22 0 42 -10q31 -15 45 -48l84 -178q35 -78 78 -165l77 -163l77 163l77 165l84 178q16 33 46 48q19 10 41 10q11 0 24 -3q35 -8 56 -34.5t21 -61.5v-1188q0 -41 -28.5 -69.5t-69.5 -28.5t-69.5 28.5t-28.5 69.5v748 l-51 -109l-45 -94l-45 -94q-12 -27 -36 -42t-53 -15q-63 0 -90 57l-45 94l-45 94l-49 109v-748q0 -41 -28.5 -69.5t-69.5 -28.5t-70 28.5t-29 69.5z" />
<glyph unicode="N" horiz-adv-x="983" d="M106 57v1188q0 35 20.5 61.5t55.5 34.5q12 3 24 3q22 0 41 -10q30 -15 46 -46l129 -268l125 -258l133 -275v758q0 41 28.5 69.5t69.5 28.5t70 -28.5t29 -69.5v-1188q0 -35 -21.5 -61.5t-54.5 -34.5q-12 -3 -24 -3q-22 0 -42 10q-31 15 -45 46l-129 269l-126 258l-132 274 v-758q0 -41 -28.5 -69.5t-69.5 -28.5t-70 28.5t-29 69.5z" />
<glyph unicode="O" d="M82 303v696q0 72 26.5 134.5t73.5 109.5t109.5 73.5t134.5 26.5t134.5 -26.5t109.5 -73.5t73.5 -109.5t26.5 -134.5v-696q0 -72 -26.5 -134.5t-73.5 -109.5t-109.5 -73.5t-134.5 -26.5t-134.5 26.5t-109.5 73.5t-73.5 109.5t-26.5 134.5zM279 303q0 -61 43 -104t104 -43 t104 43t43 104v696q0 61 -43 104.5t-104 43.5t-104 -43t-43 -105v-696z" />
<glyph unicode="P" horiz-adv-x="819" d="M106 57v1180q0 41 29 69.5t70 28.5h246q72 0 134 -26.5t109 -73.5t74 -109.5t27 -134.5v-114q0 -72 -27 -134.5t-74 -109.5t-109.5 -74t-133.5 -27h-148v-475q0 -41 -28.5 -69.5t-69.5 -28.5t-70 28.5t-29 69.5zM303 729h148q61 0 104 43t43 105v114q0 61 -43 104.5 t-104 43.5h-148v-410z" />
<glyph unicode="Q" d="M82 303v696q0 72 27.5 134.5t73.5 109.5t108.5 73.5t134.5 26.5t134.5 -26.5t109.5 -73.5t73.5 -109.5t26.5 -134.5v-696q0 -70 -24.5 -129t-69.5 -106l82 -142q13 -22 13 -46q0 -13 -4 -27q-11 -39 -46 -60q-23 -15 -48 -15q-13 0 -26 4q-39 11 -59 46l-82 141 q-41 -10 -80 -10q-72 0 -134.5 26.5t-108.5 73.5t-73.5 109.5t-27.5 134.5zM279 303q0 -61 43 -104t104 -43t104 43t43 104v696q0 61 -43 104.5t-104 43.5t-104 -43t-43 -105v-696z" />
<glyph unicode="R" d="M107 57v1180q0 41 28.5 69.5t69.5 28.5h246q72 0 134 -26.5t109 -73.5t74 -109.5t27 -134.5v-114q0 -100 -50.5 -181.5t-134.5 -124.5l178 -479q8 -19 8 -37q0 -20 -9 -39q-17 -37 -56 -51q-18 -7 -36 -7q-20 0 -39 9q-36 16 -52 56l-190 509h-111v-475 q0 -41 -28.5 -69.5t-69.5 -28.5t-69.5 28.5t-28.5 69.5zM303 729h148q61 0 104 43t43 105v114q0 61 -43 104.5t-104 43.5h-148v-410z" />
<glyph unicode="S" horiz-adv-x="782" d="M60 210q11 40 46 60q22 13 47 14q13 0 27 -4q39 -11 62 -47q35 -59 104 -75q16 -3 31 -3q53 0 96 33q29 20 43 49t19 64q1 8 0 15q0 60 -43 108l-328 336q-53 53 -78 123q-20 56 -20 114q0 15 2 29q6 74 40.5 138.5t94 109.5t132.5 61q39 9 77 9q34 0 67 -7 q72 -16 132.5 -58t97.5 -108q13 -22 13 -46q0 -13 -4 -27q-11 -39 -46 -62q-22 -13 -47 -13q-13 0 -27 4q-39 11 -59 46q-35 55 -99 72q-15 3 -29 3q-48 0 -89 -32q-53 -39 -58 -106q-1 -8 -1 -15q0 -56 42 -98l326 -336q53 -55 80 -127q22 -58 21 -119q0 -14 -1 -28 q-6 -78 -43 -143.5t-96 -112.5q-61 -47 -135 -64q-39 -9 -80 -9q-35 0 -70 7q-76 16 -137 60.5t-98 109.5q-15 23 -15 49q-1 13 3 26z" />
<glyph unicode="T" horiz-adv-x="778" d="M25 1237q0 41 28.5 69.5t69.5 28.5h532q41 0 70 -28.5t29 -69.5t-29 -69.5t-70 -28.5h-168v-1082q0 -41 -28.5 -69.5t-69.5 -28.5t-69.5 28.5t-28.5 69.5v1082h-168q-41 0 -69.5 28.5t-28.5 69.5z" />
<glyph unicode="U" horiz-adv-x="868" d="M90 303v942q0 41 28.5 69.5t69.5 28.5t70 -28.5t29 -69.5v-942q0 -61 43 -104t104 -43q59 0 103.5 43t44.5 104v942q0 41 28.5 69.5t69.5 28.5t69.5 -28.5t28.5 -69.5v-942q0 -72 -27.5 -134.5t-73.5 -109.5t-109.5 -73.5t-133.5 -26.5q-72 0 -134 26.5t-109.5 73.5 t-74 109.5t-26.5 134.5z" />
<glyph unicode="V" horiz-adv-x="917" d="M37 1219q-10 41 9.5 75.5t59.5 44.5q39 10 75 -9t46 -58l80 -293l76 -274l78 -279l76 279l75 274l80 293q10 39 46 58.5t75 8.5q41 -10 60.5 -44.5t9.5 -75.5l-328 -1188q-10 -33 -35.5 -52.5t-58.5 -19.5q-35 0 -60.5 19.5t-35.5 52.5z" />
<glyph unicode="W" horiz-adv-x="1429" d="M45 1223q-3 13 -3 24q0 25 14 49q22 35 61 45q13 3 25 4q26 0 49 -15q34 -22 45 -62l63 -264l62 -256l67 -271l65 271l62 256l63 264q8 35 35 55t62 20t60.5 -20t33.5 -55l63 -264l63 -256l66 -271l65 271l62 256l64 264q10 41 44 62q23 15 49 15q12 0 26 -4 q41 -10 61 -45q14 -23 14 -48q0 -13 -4 -25l-286 -1188q-8 -35 -34 -55.5t-60.5 -20.5t-61.5 20.5t-35 55.5l-63 264l-63 255l-64 271l-67 -271l-62 -255l-64 -264q-8 -35 -33.5 -55.5t-60.5 -20.5t-61.5 20.5t-34.5 55.5z" />
<glyph unicode="X" horiz-adv-x="864" d="M32 27q-6 16 -6 32q0 22 11 41l285 572l-265 528q-11 21 -10 44q0 16 5 32q13 39 48 57q21 11 44 11q16 0 32 -6q39 -13 57 -50l199 -397l199 397q18 37 57 50q16 6 32 6q22 0 42 -11q37 -18 50 -57q6 -16 6 -32q0 -22 -11 -44l-264 -528l284 -572q11 -20 11 -41 q0 -16 -5 -32q-13 -39 -51 -58q-20 -11 -41 -10q-16 0 -32 5q-39 13 -58 48l-219 441l-219 -441q-18 -35 -57 -48q-16 -6 -33 -5q-22 0 -43 10q-35 19 -48 58z" />
<glyph unicode="Y" horiz-adv-x="823" d="M32 1276q13 39 50 57q20 11 42 11q16 0 32 -6q39 -13 57 -50l68 -135l63 -129l68 -133l66 133l65 129l67 135q18 37 58 50q16 6 32 6q22 0 41 -11q37 -18 51 -57q6 -16 5 -32q0 -22 -11 -44l-276 -551v-592q0 -41 -28.5 -69.5t-69.5 -28.5t-70 28.5t-29 69.5v592 l-276 551q-11 21 -11 44q0 16 6 32z" />
<glyph unicode="Z" horiz-adv-x="786" d="M49 66q0 23 8 38l183 437l73 176l71 170l62 145l46 107h-345q-41 0 -69.5 28.5t-28.5 69.5t28.5 69.5t69.5 28.5h492q51 0 82 -43q16 -27 16 -55q0 -23 -8 -39l-184 -438l-74 -175l-71 -169l-61 -147l-44 -105h344q41 0 69.5 -29t28.5 -69.5t-28.5 -69.5t-69.5 -29h-492 q-51 0 -81 43q-17 27 -17 56z" />
<glyph unicode="[" horiz-adv-x="524" d="M106 -98v1499q0 41 29 69.5t70 28.5h205q41 0 69.5 -28.5t28.5 -69.5t-28.5 -69.5t-69.5 -28.5h-107v-1303h107q41 0 69.5 -28.5t28.5 -69.5t-28.5 -70t-69.5 -29h-205q-41 0 -70 29t-29 70z" />
<glyph unicode="\" d="M88 1294q-6 17 -6 34q0 20 9 40q17 37 56 51q18 6 35 7q21 0 40 -10q36 -17 50 -56l492 -1352q8 -19 8 -37q0 -19 -9 -38q-17 -36 -56 -50q-18 -6 -35 -6q-21 0 -41 9q-37 17 -51 57z" />
<glyph unicode="]" horiz-adv-x="524" d="M16 -98q0 41 29 69.5t70 28.5h106v1303h-106q-41 0 -70 28.5t-29 69.5t29 69.5t70 28.5h204q41 0 70 -28.5t29 -69.5v-1499q0 -41 -29 -70t-70 -29h-204q-41 0 -70 29t-29 70z" />
<glyph unicode="^" horiz-adv-x="1024" d="M91 879q0 36 24 63l323 369q29 33 74 32.5t74 -32.5l323 -369q24 -28 24 -63v-9q-3 -41 -34 -67q-28 -26 -63 -26h-8q-40 3 -68 34l-90 104l-82 94l-76 87l-77 -87l-81 -94l-90 -104q-29 -31 -68 -34h-8q-35 0 -63 26q-34 30 -34 76z" />
<glyph unicode="_" horiz-adv-x="1024" d="M-98 -229q0 41 28.5 69.5t69.5 28.5h1024q41 0 69.5 -28.5t28.5 -69.5t-28.5 -70t-69.5 -29h-1024q-41 0 -69.5 29t-28.5 70z" />
<glyph unicode="`" horiz-adv-x="1024" d="M323 1284q0 34 21 62q25 27 60 28h6q33 0 59 -22l205 -185q27 -25 28 -60q0 -3 1 -6q0 -33 -23 -59q-25 -27 -60 -28h-6q-32 0 -57 22l-205 185q-29 25 -29 63z" />
<glyph unicode="a" horiz-adv-x="720" d="M31 270.5q0 61.5 23.5 115.5t63.5 94t94 63.5t116 23.5h112v109q0 33 -18.5 60.5t-48.5 39.5q-20 8 -42 8q-11 0 -22 -2q-33 -6 -55 -30q-27 -27 -66 -27q-37 0 -63 27q-29 29 -29 65.5t29 65.5q63 63 149 81q29 6 57 5q56 0 111 -23q84 -35 133.5 -107.5t49.5 -162.5 v-610q0 -39 -27 -66t-66 -27h-204q-61 0 -115.5 23.5t-94.5 63.5t-63.5 94.5t-23.5 116zM215 270q0 -47 33 -79.5t80 -32.5h112v225h-112q-47 0 -80 -33t-33 -80z" />
<glyph unicode="b" horiz-adv-x="794" d="M113 66v1220q0 39 26.5 65.5t65.5 26.5t65.5 -26.5t26.5 -65.5v-325h113q61 0 115.5 -24t94 -63.5t63.5 -94t24 -115.5v-394q0 -61 -24 -115.5t-63.5 -94.5t-94 -63.5t-115.5 -23.5h-205q-39 0 -65.5 27t-26.5 66zM297 158h113q47 0 79.5 32.5t32.5 79.5v394 q0 47 -32.5 79.5t-79.5 32.5h-113v-618z" />
<glyph unicode="c" horiz-adv-x="671" d="M88 262v410q0 92 49 165.5t133 108.5q57 23 115 23q29 0 58 -5q87 -17 151 -83q29 -27 29 -66q0 -37 -29 -63q-27 -29 -66 -29q-37 0 -63 29q-25 25 -58 30q-11 2 -23 2q-22 0 -42 -8q-33 -14 -51.5 -41.5t-18.5 -62.5v-410q0 -35 18.5 -62.5t51.5 -41.5q20 -8 42 -8 q11 0 23 2q34 6 58 30q27 29 63 29q39 0 66 -29q29 -29 29 -65.5t-29 -65.5q-63 -63 -151 -81q-29 -6 -58 -5q-58 0 -115 23q-84 35 -133 108.5t-49 165.5z" />
<glyph unicode="d" horiz-adv-x="794" d="M88 270v394q0 61 23.5 115.5t63.5 94t94.5 63.5t115.5 24h113v325q0 39 26.5 65.5t65.5 26.5t65.5 -26.5t26.5 -65.5v-1220q0 -39 -26.5 -66t-65.5 -27h-205q-61 0 -115.5 23.5t-94.5 63.5t-63.5 94.5t-23.5 115.5zM272 270q0 -47 33 -79.5t80 -32.5h113v618h-113 q-47 0 -80 -32.5t-33 -79.5v-394z" />
<glyph unicode="e" horiz-adv-x="753" d="M88 262v410q0 61 23.5 115.5t63.5 94.5t94.5 63.5t115.5 23.5t115.5 -23.5t94.5 -63.5t63.5 -94.5t23.5 -115.5v-205q0 -39 -26.5 -65.5t-65.5 -26.5h-318v-113q0 -35 18.5 -62.5t51.5 -41.5q22 -8 44 -8l22 2q33 6 57 30q27 29 63 29q39 0 68 -29q27 -29 27 -65.5 t-27 -65.5q-66 -63 -153 -81q-29 -6 -57 -5q-57 0 -114 23q-86 35 -135 108.5t-49 165.5zM272 559h226v113q0 47 -33 79.5t-80 32.5t-80 -32.5t-33 -79.5v-113z" />
<glyph unicode="f" horiz-adv-x="606" d="M23 868q0 39 26.5 66t65.5 27h71v120q0 61 23.5 115.5t63.5 94.5t94.5 63.5t115.5 23.5q39 0 65.5 -26.5t26.5 -65.5t-26.5 -65.5t-65.5 -26.5q-47 0 -79.5 -33t-32.5 -80v-120h112q39 0 65.5 -27t26.5 -66t-26.5 -65.5t-65.5 -26.5h-112v-719q0 -39 -27 -65.5 t-65.5 -26.5t-65.5 26.5t-27 65.5v719h-71q-39 0 -65.5 26.5t-26.5 65.5z" />
<glyph unicode="g" horiz-adv-x="786" d="M88 270v394q0 61 23.5 115.5t63.5 94t94.5 63.5t115.5 24h205q39 0 65.5 -27t26.5 -66v-1015q0 -92 -49 -166t-133 -109q-57 -23 -115 -23q-29 0 -58 6q-87 17 -151 81q-29 29 -29 65.5t29 65.5q27 29 64 28q39 0 65 -28q25 -25 59 -31q11 -2 22 -2q22 0 42 8 q33 14 51.5 42t18.5 63v120h-113q-61 0 -115.5 23.5t-94.5 63.5t-63.5 94.5t-23.5 115.5zM272 270q0 -47 33 -79.5t80 -32.5h113v618h-113q-47 0 -80 -32.5t-33 -79.5v-394z" />
<glyph unicode="h" horiz-adv-x="802" d="M113 57v1229q0 39 26.5 65.5t65.5 26.5t65.5 -26.5t26.5 -65.5v-325h113q61 0 115.5 -24t94 -63.5t63.5 -94t24 -115.5v-607q0 -39 -27 -65.5t-66 -26.5t-65.5 26.5t-26.5 65.5v607q0 47 -32.5 79.5t-79.5 32.5h-113v-719q0 -39 -26.5 -65.5t-65.5 -26.5t-65.5 26.5 t-26.5 65.5z" />
<glyph unicode="i" horiz-adv-x="409" d="M92 1184q0 47 33 79.5t80 32.5t79.5 -32.5t32.5 -79.5t-32.5 -80t-79.5 -33t-80 33t-33 80zM113 57v820q0 39 26.5 65.5t65.5 26.5t65.5 -27t26.5 -65v-820q0 -39 -26.5 -65.5t-65.5 -26.5t-65.5 26.5t-26.5 65.5z" />
<glyph unicode="j" horiz-adv-x="425" d="M-76 -352q0 39 26.5 65.5t65.5 26.5q47 0 80 32.5t33 80.5v1024q0 39 26.5 65.5t65.5 26.5t65.5 -27t26.5 -65v-1024q0 -61 -23.5 -115.5t-63.5 -94.5t-94 -63.5t-116 -23.5q-39 0 -65.5 26.5t-26.5 65.5zM109 1184q0 47 32.5 79.5t79.5 32.5t80 -32.5t33 -79.5t-33 -80 t-80 -33t-79.5 33t-32.5 80z" />
<glyph unicode="k" horiz-adv-x="778" d="M113 57v1229q0 39 26.5 65.5t65.5 26.5t65.5 -26.5t26.5 -65.5v-672l289 324q27 29 64 31h6q35 0 61 -25q31 -26 31 -68q0 -35 -25 -61l-236 -264l248 -449q12 -22 12 -45q0 -13 -4 -26q-10 -37 -45 -54q-22 -12 -45 -12q-12 0 -24 3q-37 9 -56 44l-215 394l-61 -68v-281 q0 -39 -26.5 -65.5t-65.5 -26.5t-65.5 26.5t-26.5 65.5z" />
<glyph unicode="l" horiz-adv-x="409" d="M106 199v1087q0 39 28 65.5t65 26.5q39 0 65.5 -26.5t26.5 -65.5v-1087q0 -41 37 -62q33 -20 43 -56q3 -12 3 -24q0 -24 -14 -47q-18 -33 -55 -42q-12 -3 -24 -3q-24 0 -45 12q-59 35 -94.5 94.5t-35.5 127.5z" />
<glyph unicode="m" horiz-adv-x="1212" d="M113 57v811q0 39 26.5 66t65.5 27h614q61 0 114.5 -24t94.5 -63.5t64.5 -94t23.5 -115.5v-607q0 -39 -27.5 -65.5t-64.5 -26.5q-39 0 -65.5 26.5t-26.5 65.5v607q0 47 -33 79.5t-80 32.5h-112v-719q0 -39 -28 -65.5t-65 -26.5q-39 0 -65.5 26.5t-26.5 65.5v719h-225v-719 q0 -39 -27.5 -65.5t-64.5 -26.5q-39 0 -65.5 26.5t-26.5 65.5z" />
<glyph unicode="n" horiz-adv-x="802" d="M113 57v811q0 39 26.5 66t65.5 27h205q61 0 115.5 -24t94 -63.5t63.5 -94t24 -115.5v-607q0 -39 -28 -65.5t-65 -26.5q-39 0 -65.5 26.5t-26.5 65.5v607q0 47 -32.5 79.5t-79.5 32.5h-113v-719q0 -39 -27.5 -65.5t-64.5 -26.5q-39 0 -65.5 26.5t-26.5 65.5z" />
<glyph unicode="o" horiz-adv-x="770" d="M88 262v410q0 61 23.5 115.5t63.5 94.5t94.5 63.5t115.5 23.5t115.5 -23.5t94.5 -63.5t63.5 -94.5t23.5 -115.5v-410q0 -61 -23.5 -115.5t-63.5 -94.5t-94.5 -63.5t-115.5 -23.5t-115.5 23.5t-94.5 63.5t-63.5 94.5t-23.5 115.5zM272 262q0 -47 33 -79.5t80 -32.5 t80 32.5t33 79.5v410q0 47 -33 79.5t-80 32.5t-80 -32.5t-33 -79.5v-410z" />
<glyph unicode="p" horiz-adv-x="794" d="M113 -352v1220q0 39 26.5 66t65.5 27h205q61 0 115.5 -24t94 -63.5t63.5 -94t24 -115.5v-394q0 -61 -24 -115.5t-63.5 -94.5t-94 -63.5t-115.5 -23.5h-113v-325q0 -39 -26.5 -65.5t-65.5 -26.5t-65.5 26.5t-26.5 65.5zM297 158h113q47 0 79.5 32.5t32.5 79.5v394 q0 47 -32.5 79.5t-79.5 32.5h-113v-618z" />
<glyph unicode="q" horiz-adv-x="794" d="M88 270v394q0 61 23.5 115.5t63.5 94t94.5 63.5t115.5 24h205q39 0 65.5 -27t26.5 -66v-1220q0 -39 -26.5 -65.5t-65.5 -26.5t-65.5 26.5t-26.5 65.5v325h-113q-61 0 -115.5 23.5t-94.5 63.5t-63.5 94.5t-23.5 115.5zM272 270q0 -47 33 -79.5t80 -32.5h113v618h-113 q-47 0 -80 -32.5t-33 -79.5v-394z" />
<glyph unicode="r" horiz-adv-x="612" d="M113 57v811q0 39 26.5 66t65.5 27h205q76 0 147 -39q35 -20 44 -57q3 -11 3 -23q0 -24 -12 -47q-20 -33 -56 -43q-12 -3 -24 -4q-24 0 -47 14q-29 14 -55 14h-113v-719q0 -39 -26.5 -65.5t-65.5 -26.5t-65.5 26.5t-26.5 65.5z" />
<glyph unicode="s" horiz-adv-x="673" d="M69 178q9 37 42 55q23 12 47 13q12 0 24 -3q37 -9 56 -42q23 -43 71 -49q9 -2 18 -2q35 0 64 26q33 28 33 70q0 58 -41 86l-193 133q-51 37 -81.5 91t-34.5 118q-1 9 -1 18q0 53 20 104q24 58 71 101q47 41 106 59q38 12 78 12q22 0 45 -3q61 -10 112.5 -45t84.5 -91 q12 -22 12 -45q0 -12 -3 -24q-9 -37 -44 -55q-22 -12 -45 -13q-12 0 -25 3q-37 9 -55 42q-23 39 -65 45q-9 2 -17 2q-31 0 -59 -24q-31 -26 -31 -65q0 -49 39 -79l190 -133q53 -39 85 -94t36 -121q1 -10 1 -19q0 -55 -20 -106q-24 -59 -73 -104q-47 -43 -108 -62 q-39 -12 -81 -11q-23 0 -46 3q-66 10 -118 46t-85 94q-12 22 -12 45q0 12 3 24z" />
<glyph unicode="t" horiz-adv-x="606" d="M23 868q0 39 26.5 66t65.5 27h71v325q0 39 27 65.5t65.5 26.5t65.5 -26.5t27 -65.5v-325h112q39 0 65.5 -27t26.5 -66t-26.5 -65.5t-65.5 -26.5h-112v-514q0 -47 32.5 -79.5t79.5 -32.5q39 0 65.5 -27t26.5 -66t-26.5 -65.5t-65.5 -26.5q-61 0 -115.5 23.5t-94.5 63.5 t-63.5 94.5t-23.5 115.5v514h-71q-39 0 -65.5 26.5t-26.5 65.5z" />
<glyph unicode="u" horiz-adv-x="802" d="M96 270v607q0 39 26.5 65.5t65.5 26.5t66 -27t27 -65v-607q0 -47 32.5 -79.5t79.5 -32.5h113v719q0 39 26.5 65.5t65.5 26.5t65.5 -27t26.5 -65v-811q0 -39 -26.5 -66t-65.5 -27h-205q-61 0 -115.5 23.5t-94.5 63.5t-63.5 94.5t-23.5 115.5z" />
<glyph unicode="v" horiz-adv-x="757" d="M45 850q-10 37 7.5 70.5t54 44t70.5 -7t44 -54.5l51 -172l51 -168l56 -184l56 184l50 168l52 172q10 37 43.5 54.5t70.5 7t54.5 -44t7.5 -70.5l-246 -819q-8 -29 -32.5 -47.5t-55.5 -18.5t-54.5 18.5t-33.5 47.5z" />
<glyph unicode="w" horiz-adv-x="1101" d="M51 854q-10 37 9.5 69.5t56.5 43t69.5 -10t42.5 -57.5l37 -145l36 -149q19 -83 42 -169l43 169l37 149l37 145q8 31 32.5 50.5t55.5 19.5q33 0 57.5 -19.5t32.5 -50.5l37 -145l36 -149q19 -83 42 -169l43 169l37 149l36 145q10 37 42 57.5t69 10t57.5 -43t10.5 -69.5 l-205 -819q-8 -31 -33 -50.5t-57 -19.5q-31 0 -55.5 19.5t-32.5 50.5l-37 145l-37 148l-43 168q-23 -86 -42 -168l-36 -148l-37 -145q-8 -31 -32.5 -50.5t-57.5 -19.5q-31 0 -55.5 19.5t-32.5 50.5z" />
<glyph unicode="x" horiz-adv-x="737" d="M51 31q-4 13 -3 26q0 23 11 45l205 373l-196 356q-12 22 -12 46q0 13 3 25q10 36 45 54q21 12 44 12q13 0 26 -3q37 -10 55 -43l140 -256l141 256q18 33 54 43q13 4 26 3q23 0 45 -12q35 -18 45 -54q4 -13 4 -25q0 -23 -12 -46l-197 -356l205 -373q12 -22 12 -45 q0 -13 -4 -26q-10 -37 -45 -54q-23 -12 -47 -12q-12 0 -24 3q-36 9 -54 44l-149 271l-148 -271q-18 -35 -55 -44q-12 -3 -24 -3q-24 0 -46 12q-35 17 -45 54z" />
<glyph unicode="y" horiz-adv-x="755" d="M10 -352q0 39 26.5 65.5t65.5 26.5t69 22.5t40 57.5l70 237l-238 793q-4 13 -4 26q0 23 12 45q18 34 55 44q13 4 26 3q22 0 43 -11q34 -17 46 -54l156 -524l158 524q10 37 45 54q22 11 43 11l26 -3q37 -10 56 -44q12 -22 11 -45q0 -13 -3 -26l-248 -819l-78 -264 q-29 -96 -106 -152q-82 -59 -179 -59q-39 0 -65.5 26.5t-26.5 65.5z" />
<glyph unicode="z" horiz-adv-x="704" d="M55 868q0 39 27 66t65 27h410q51 0 78 -46q14 -25 14 -47q0 -18 -10 -43l-135 -264l-58 -110l-56 -111l-51 -100l-42 -82h260q37 0 64.5 -27t27.5 -65.5t-27.5 -65.5t-64.5 -27h-410q-53 0 -79 43q-12 25 -12.5 49.5t7.5 40.5l136 265l56 110l57 111l52 101l42 83h-259 q-39 0 -65.5 26.5t-26.5 65.5z" />
<glyph unicode="{" horiz-adv-x="524" d="M0 672q0 41 28.5 69.5t69.5 28.5q29 0 47.5 18.5t18.5 47.5v409q0 55 20.5 102.5t56 83t83 56t102.5 20.5q41 0 69.5 -28.5t28.5 -69.5t-28.5 -69.5t-69.5 -28.5q-29 0 -47.5 -18.5t-18.5 -47.5v-409q0 -47 -15 -88t-42 -76q27 -35 42 -76t15 -88v-451q0 -29 18.5 -47 t47.5 -18q41 0 69.5 -29t28.5 -69.5t-28.5 -69.5t-69.5 -29q-55 0 -102.5 20.5t-83 56.5t-56 83t-20.5 102v451q0 29 -18.5 47t-47.5 18q-41 0 -69.5 29t-28.5 70z" />
<glyph unicode="|" horiz-adv-x="425" d="M125 -352v2048q0 41 28.5 69.5t69.5 28.5t70 -28.5t29 -69.5v-2048q0 -41 -29 -70t-70 -29t-69.5 29t-28.5 70z" />
<glyph unicode="}" horiz-adv-x="524" d="M0 -106.5q0 40.5 28.5 69.5t69.5 29q27 0 46.5 18.5t19.5 46.5v451q0 94 57 164q-57 70 -57 164v409q0 29 -19.5 47.5t-46.5 18.5q-41 0 -69.5 28.5t-28.5 69.5t28.5 69.5t69.5 28.5q53 0 101.5 -20.5t84 -56t56 -83t20.5 -102.5v-409q0 -29 18.5 -47.5t47.5 -18.5 q41 0 69.5 -28.5t28.5 -69.5t-28.5 -70t-69.5 -29q-29 0 -47.5 -18t-18.5 -47v-451q0 -55 -20.5 -102t-56 -83t-83.5 -56.5t-102 -20.5q-41 0 -69.5 29t-28.5 69.5z" />
<glyph unicode="~" d="M58 477q-2 10 -1 19q0 27 15 51q33 47 81 78.5t103 42.5q25 4 49 4q90 0 166 -56l25 -18q24 -19 49 -19q10 0 20 3q41 6 60 39q23 33 60 41q10 2 20 2q27 0 51 -17q31 -23 39 -60q2 -10 2 -20q0 -26 -17 -49q-31 -47 -79 -78.5t-105 -42.5q-24 -4 -48 -4l-63 7 q-55 13 -102 49l-25 18q-26 18 -54 18q-8 0 -15 -2q-39 -6 -61.5 -38.5t-59.5 -41.5q-10 -2 -19 -2q-26 0 -51 17q-33 22 -40 59z" />
<glyph unicode="&#xa1;" horiz-adv-x="409" d="M86 856q0 49 35 84t84 35t84 -35t35 -84t-35 -84t-84 -35t-84 35t-35 84zM106 -270v819q0 41 29 69.5t70 28.5t69.5 -28.5t28.5 -69.5v-819q0 -41 -28.5 -70t-69.5 -29t-70 29t-29 70z" />
<glyph unicode="&#xa2;" d="M152 262v410q0 92 50 169t136 111l18 6v82q0 41 29 70t70 29t69.5 -29t28.5 -70v-82q66 -23 115 -71q29 -29 28.5 -70t-29 -69.5t-69.5 -28.5t-70 29q-29 31 -73 30h-2q-23 0 -39 -8q-31 -12 -48.5 -38.5t-17.5 -59.5v-410q0 -33 17.5 -59.5t48.5 -38.5q16 -8 39 -8h2 q45 0 73 30q29 29 70 29t69.5 -28.5t28.5 -69.5t-28 -70q-49 -49 -115 -72v-81q0 -41 -28.5 -70t-69.5 -29t-70 29t-29 70v81l-18 7q-86 35 -136 111.5t-50 168.5z" />
<glyph unicode="&#xa3;" d="M41 672q0 41 28.5 69.5t69.5 28.5h66v270q0 104 62.5 185.5t162.5 107.5q41 11 81 11q58 0 114 -23q94 -39 145 -129q15 -23 15 -48q0 -13 -4 -26q-11 -39 -46 -61q-22 -13 -46 -13q-13 0 -27 4q-39 11 -62 46q-16 31 -50 45q-20 8 -40 8q-14 0 -29 -4q-35 -10 -57.5 -39 t-22.5 -64v-270h148q41 0 69.5 -28.5t28.5 -69.5t-28.5 -70t-69.5 -29h-148v-276q0 -74 -26 -133h338q41 0 69.5 -29t28.5 -69.5t-28.5 -69.5t-69.5 -29h-574q-35 0 -62.5 23.5t-33.5 58.5q-2 9 -2 18q0 25 13 48q17 31 52 43q45 16 72 54t27 85v276h-66q-41 0 -69.5 29 t-28.5 70z" />
<glyph unicode="&#xa4;" d="M39 381q0 41 29 70l55 57q-41 76 -41 164t41 164l-55 55q-29 29 -29 69.5t28.5 69.5t69.5 29t70 -29l55 -55q76 41 164 41t164 -41l55 55q29 29 70 29t69.5 -29t28.5 -69.5t-29 -69.5l-55 -55q41 -76 41 -164t-41 -164l55 -57q29 -29 29 -70q0 -39 -28.5 -67.5 t-69.5 -28.5t-70 28l-55 56q-76 -41 -164 -41t-164 41l-55 -56q-29 -29 -70 -28.5t-69.5 29t-28.5 67.5zM279 671.5q0 -61.5 43 -104.5t104 -43t104 43t43 104.5t-43 104.5t-104 43t-104 -43t-43 -104.5z" />
<glyph unicode="&#xa5;" d="M46 1276q13 39 48 57q21 11 44 11q16 0 32 -6q39 -13 57 -50l68 -135l63 -129l68 -133l67 133l64 129l68 135q18 37 57 50q16 6 32 6q22 0 42 -11q37 -18 50 -57q6 -16 5 -32q0 -22 -10 -44l-215 -430h94q41 0 69.5 -28.5t28.5 -69.5t-28.5 -70t-69.5 -29h-156v-131h156 q41 0 69.5 -28.5t28.5 -69.5t-28.5 -69.5t-69.5 -28.5h-156v-189q0 -41 -28.5 -69.5t-69.5 -28.5t-69.5 28.5t-28.5 69.5v189h-140q-41 0 -69.5 28.5t-28.5 69.5t28.5 69.5t69.5 28.5h140v131h-140q-41 0 -69.5 29t-28.5 70t28.5 69.5t69.5 28.5h78l-215 430q-11 21 -11 44 q0 16 6 32z" />
<glyph unicode="&#xa6;" horiz-adv-x="425" d="M115 -352v819q0 41 28.5 69.5t69.5 28.5t69.5 -28.5t28.5 -69.5v-819q0 -41 -28.5 -70t-69.5 -29t-69.5 29t-28.5 70zM115 877v819q0 41 28.5 69.5t69.5 28.5t69.5 -28.5t28.5 -69.5v-819q0 -41 -28.5 -70t-69.5 -29t-69.5 29t-28.5 70z" />
<glyph unicode="&#xa7;" d="M137 764q16 82 68 139q-45 63 -49 152q0 63 25.5 120.5t72.5 98.5q49 41 110 58q38 11 77 11q23 0 46 -4q61 -10 112.5 -46t84.5 -91q13 -22 13 -46q0 -13 -4 -28q-11 -39 -46 -61q-22 -13 -46 -13q-13 0 -28 4q-39 11 -59 46q-14 23 -31.5 31t-29.5 10q-10 4 -30 1 t-40.5 -19.5t-25.5 -36t-5 -31.5q2 -10 7.5 -29.5t25.5 -36.5l229 -182q61 -49 91 -122q18 -46 18 -94q0 -28 -6 -56q-16 -82 -68 -140q47 -70 47 -161q0 -60 -23 -113q-26 -57 -73 -98q-81 -68 -180 -69q-26 0 -53 5q-61 10 -112.5 46t-84.5 91q-13 22 -13 47q0 13 4 27 q11 39 46 62q22 13 46 13q13 0 28 -4q39 -11 59 -46q14 -23 31.5 -31t27.5 -10q12 -4 32 -1t40.5 19.5t25.5 35.5t3 32q0 10 -5.5 29.5t-25.5 35.5l-229 183q-63 49 -92 121q-17 46 -17 94q0 28 6 57zM330 729q-2 -10 -2 -20q0 -38 32 -64l144 -113q14 16 20 41q2 10 2 20 q0 38 -32 64l-144 113q-14 -16 -20 -41z" />
<glyph unicode="&#xa8;" horiz-adv-x="1024" d="M236 1184q0 47 32.5 79.5t79.5 32.5t80 -32.5t33 -79.5t-33 -80t-80 -33t-79.5 33t-32.5 80zM563 1184q0 47 33 79.5t80 32.5t79.5 -32.5t32.5 -79.5t-32.5 -80t-79.5 -33t-80 33t-33 80z" />
<glyph unicode="&#xa9;" horiz-adv-x="1470" d="M49 651.5q0 139.5 51.5 263t149.5 222t223 149.5t262 51q139 0 264 -51t223.5 -149.5t149.5 -222t51 -263t-51 -263.5t-149.5 -222t-223.5 -150.5t-264 -52.5q-137 0 -262 52.5t-223 150.5t-149.5 222t-51.5 263.5zM236 651.5q0 -100.5 37.5 -191.5t109.5 -163 t162 -109.5t190 -37.5q102 0 192.5 37.5t162 109.5t109.5 163t38 191.5t-38 191.5t-109.5 162.5t-161.5 108.5t-193 37q-100 0 -190 -37t-162 -108.5t-109.5 -162.5t-37.5 -191.5zM479 508v287q0 88 52.5 156.5t138.5 90.5q35 9 69 10q49 0 97 -20q80 -33 122 -108 q14 -23 14 -48q0 -12 -3 -24q-10 -37 -45 -55q-23 -14 -48 -14q-11 0 -22 2q-37 9 -57 44q-10 23 -33 31t-45 2q-53 -14 -53 -67v-287q0 -25 14 -43.5t39 -24.5q23 -6 45 2.5t33 30.5q20 33 57 43q12 3 24 4q24 0 46 -14q35 -18 45 -55q3 -12 3 -25q0 -24 -14 -47 q-43 -76 -122 -109q-47 -19 -97 -19q-34 0 -69 9q-86 23 -138.5 91.5t-52.5 156.5z" />
<glyph unicode="&#xaa;" horiz-adv-x="624" d="M82 815q0 47 18.5 89t50 74t73.5 50.5t89 18.5h56v55q0 18 -11.5 33.5t-29.5 19.5q-9 2 -17 2q-29 0 -45 -29q-18 -31 -54 -39q-13 -3 -25 -4q-22 0 -42 11q-33 18 -42 54q-3 12 -3 24q0 23 13 45q39 68 111 98q42 18 85 18q32 0 64 -10q78 -20 125 -82.5t47 -140.5v-430 q0 -37 -25.5 -62.5t-62.5 -25.5h-144q-47 0 -89 18.5t-73.5 50t-50 73.5t-18.5 89zM258 815.5q0 -22.5 16.5 -39t38.5 -16.5h56v110h-56q-23 0 -39 -16t-16 -38.5z" />
<glyph unicode="&#xab;" horiz-adv-x="858" d="M78 549q-13 24 -13 48t13 48l131 238q20 35 59 47q15 5 29 4q24 0 47 -12q49 -29 49 -86q0 -27 -12 -48l-41 -73l-34 -63l-30 -54q12 -25 32 -59l38 -68q23 -37 43 -80q12 -23 12 -47q0 -57 -49 -86q-23 -13 -47 -13q-14 0 -29 5q-39 12 -59 47zM446 549q-13 24 -13 48 t13 48l132 238q20 35 59 47q15 5 29 4q24 0 47 -12q49 -29 49 -86q0 -27 -12 -48l-41 -73l-34 -63l-30 -54q12 -25 32 -59l38 -68q23 -37 43 -80q12 -23 12 -47q0 -57 -49 -86q-23 -13 -47 -13q-14 0 -29 5q-39 12 -59 47z" />
<glyph unicode="&#xac;" d="M82 590q0 41 28.5 69.5t69.5 28.5h492q41 0 69.5 -28.5t28.5 -69.5v-246q0 -41 -28.5 -69.5t-69.5 -28.5t-70 28.5t-29 69.5v148h-393q-41 0 -69.5 28.5t-28.5 69.5z" />
<glyph unicode="&#xad;" d="M82 590q0 41 28.5 69.5t69.5 28.5h492q41 0 69.5 -28.5t28.5 -69.5t-28.5 -69.5t-69.5 -28.5h-492q-41 0 -69.5 28.5t-28.5 69.5z" />
<glyph unicode="&#xae;" horiz-adv-x="1470" d="M49 651.5q0 139.5 51.5 263t149.5 222t223 149.5t262 51q139 0 264 -51t223.5 -149.5t149.5 -222t51 -263t-51 -263.5t-149.5 -222t-223.5 -150.5t-264 -52.5q-137 0 -262 52.5t-223 150.5t-149.5 222t-51.5 263.5zM236 651.5q0 -100.5 37.5 -191.5t109.5 -163 t162 -109.5t190 -37.5q102 0 192.5 37.5t162 109.5t109.5 163t38 191.5t-38 191.5t-109.5 162.5t-161.5 108.5t-193 37q-100 0 -190 -37t-162 -108.5t-109.5 -162.5t-37.5 -191.5zM500 344v606q0 39 26.5 65.5t65.5 26.5h164q53 0 100 -20.5t82 -55t55.5 -80.5t20.5 -100 q0 -68 -32 -124t-85 -91l104 -180q12 -23 13 -47q0 -12 -3 -25q-9 -37 -44 -57q-22 -12 -46 -12q-13 0 -26 4q-37 10 -55 43l-133 231h-21v-184q0 -39 -26.5 -66.5t-67.5 -27.5q-39 0 -65.5 27.5t-26.5 66.5zM686 715h70q29 0 50 21.5t21 50t-21.5 49t-49.5 20.5h-70v-141z " />
<glyph unicode="&#xaf;" horiz-adv-x="1024" d="M-98 1532q0 41 28.5 69.5t69.5 28.5h1024q41 0 69.5 -28.5t28.5 -69.5t-28.5 -69.5t-69.5 -28.5h-1024q-41 0 -69.5 28.5t-28.5 69.5z" />
<glyph unicode="&#xb0;" horiz-adv-x="641" d="M49 1061q0 55 21.5 105.5t58.5 87t86 58t107 21.5q55 0 105 -21.5t87 -58t58.5 -87t21.5 -105.5q0 -57 -21.5 -106.5t-58.5 -86.5t-87 -58.5t-105 -21.5q-57 0 -106.5 21.5t-86.5 58.5t-58.5 86.5t-21.5 106.5zM225 1061q0 -41 28 -68.5t68.5 -27.5t68.5 27.5t28 68.5 t-28 68.5t-68.5 27.5t-68.5 -27.5t-28 -68.5z" />
<glyph unicode="&#xb1;" d="M82 65.5q0 40.5 28.5 69.5t69.5 29h492q41 0 69.5 -29t28.5 -69.5t-28.5 -69.5t-69.5 -29h-492q-41 0 -69.5 29t-28.5 69.5zM82 590q0 41 28.5 69.5t69.5 28.5h148v148q0 41 28.5 69.5t69.5 28.5t69.5 -28.5t28.5 -69.5v-148h148q41 0 69.5 -28.5t28.5 -69.5t-28.5 -69.5 t-69.5 -28.5h-148v-148q0 -41 -28.5 -69.5t-69.5 -28.5t-69.5 28.5t-28.5 69.5v148h-148q-41 0 -69.5 28.5t-28.5 69.5z" />
<glyph unicode="&#xb2;" horiz-adv-x="608" d="M82 641q0 25 14 45l246 387q12 23 6 41q-6 23 -24.5 35t-43 6t-32.5 -27q-18 -31 -54 -39q-13 -3 -26 -4q-22 0 -41 11q-33 18 -42 54q-3 12 -3 24q0 23 12 45q47 84 144 108q30 7 59 7q63 0 119 -34q82 -51 104 -145q7 -29 7 -57q0 -64 -35 -121l-16 -23l-39 -59 l-51 -81l-54 -87h106q37 0 62.5 -25.5t25.5 -62.5t-25.5 -62.5t-62.5 -25.5h-268q-51 0 -78 45q-10 22 -10 45z" />
<glyph unicode="&#xb3;" horiz-adv-x="606" d="M83 725q9 35 42 53q20 12 43 13q11 0 23 -4q36 -9 55 -39q16 -29 44 -29q8 0 17 2q18 4 29.5 19.5t11.5 33.5v41q0 23 -16.5 39t-38.5 16q-37 0 -62.5 26t-25.5 62.5t25.5 62.5t62.5 26q31 0 47 28q16 27 0 53q-16 29 -47 29t-47 -29q-18 -31 -55 -39q-13 -3 -25 -4 q-22 0 -41 11q-33 18 -42 54q-3 12 -3 24q0 23 12 45q31 53 85 83.5t115.5 30.5t116 -30.5t85 -84t30.5 -117t-30 -116.5l-10 -13l-9 -14q49 -61 49 -143v-41q0 -78 -47 -140.5t-125 -82.5q-32 -10 -63 -10q-43 0 -85 18q-73 31 -112 98q-12 22 -12 45q0 11 3 23z" />
<glyph unicode="&#xb4;" horiz-adv-x="1024" d="M352 1167l205 185q25 23 57 22h6q36 -2 60 -28q24 -28 24 -62q0 -1 -1 -3q-1 -36 -29 -60l-205 -185q-25 -23 -58 -22h-5q-37 2 -60 28q-24 28 -23 62q-1 38 29 63z" />
<glyph unicode="&#xb5;" horiz-adv-x="819" d="M113 -352v1229q0 39 26.5 65.5t65.5 26.5t65.5 -27t26.5 -65v-615q0 -47 32.5 -79.5t80 -32.5t80 32.5t32.5 79.5v615q0 39 26.5 65.5t65.5 26.5t66 -27t27 -65v-820q0 -39 -27 -65.5t-66 -26.5q-43 0 -69 33q-66 -33 -135 -33q-57 0 -113 23v-340q0 -39 -26.5 -65.5 t-65.5 -26.5t-65.5 26.5t-26.5 65.5z" />
<glyph unicode="&#xb6;" horiz-adv-x="983" d="M39 991q0 70 26.5 131.5t72.5 107.5t107.5 72.5t131.5 26.5h512q39 0 66.5 -26.5t27.5 -65.5t-27.5 -66.5t-66.5 -27.5h-49v-1249q0 -39 -28 -67t-66.5 -28t-65.5 28t-27 67v1249h-100v-1249q0 -39 -27.5 -67t-66.5 -28t-65.5 28t-26.5 67v759q-68 2 -128.5 29t-104.5 73 t-69.5 107t-25.5 129zM225 991.5q0 -59.5 41 -103.5t101 -48v303q-59 -4 -100.5 -48t-41.5 -103.5z" />
<glyph unicode="&#xb7;" horiz-adv-x="393" d="M78 794.5q0 49.5 34.5 84t84 34.5t84 -34.5t34.5 -84t-34.5 -84t-84 -34.5t-84 34.5t-34.5 84z" />
<glyph unicode="&#xb8;" horiz-adv-x="1024" d="M339 -185q11 40 46 60q33 20 33 57v125q0 41 28.5 70t69.5 29t69.5 -29t28.5 -70v-125q0 -72 -34.5 -132t-96.5 -95q-23 -14 -48 -14q-13 0 -25 4q-39 10 -60 45q-15 23 -15 49q0 13 4 26z" />
<glyph unicode="&#xb9;" horiz-adv-x="479" d="M25 1063q0 37 26 63l180 183q20 18 47 23q9 2 17 2q17 0 35 -7q25 -10 39 -32.5t14 -49.5v-614q0 -37 -25.5 -62.5t-62.5 -25.5t-62.5 25.5t-25.5 62.5v401l-9 -9l-10 -9l-12 -13q-27 -27 -63.5 -26.5t-61.5 26.5q-26 25 -26 62z" />
<glyph unicode="&#xba;" horiz-adv-x="624" d="M82 815v287q0 47 18.5 89t50 73.5t73.5 50t89 18.5t89 -18.5t74 -50t50.5 -73.5t18.5 -89v-287q0 -47 -18.5 -89t-50.5 -73.5t-74 -50t-89 -18.5t-89 18.5t-73.5 50t-50 73.5t-18.5 89zM258 815q0 -23 16.5 -39t39 -16t39 16.5t16.5 38.5v287q0 23 -16.5 39t-39 16 t-39 -16.5t-16.5 -38.5v-287z" />
<glyph unicode="&#xbb;" horiz-adv-x="858" d="M88 344q0 25 12 47q23 43 45 80l37 68q18 35 33 59l-32 54l-33 63l-41 73q-12 20 -13 48q0 57 51 86q22 13 46 12q14 0 29 -4q40 -12 59 -47l131 -238q13 -25 13 -49t-13 -47l-140 -252q-18 -35 -58 -47q-15 -5 -29 -5q-24 0 -46 13q-51 29 -51 86zM457 344q0 25 12 47 q23 43 45 80l37 68q18 35 33 59l-32 54l-34 63l-41 73q-12 20 -12 48q0 57 51 86q22 13 46 12q14 0 29 -4q40 -12 58 -47l131 -238q13 -25 13.5 -49t-13.5 -47l-139 -252q-18 -35 -58 -47q-15 -5 -30 -5q-24 0 -45 13q-51 29 -51 86z" />
<glyph unicode="&#xbc;" horiz-adv-x="1224" d="M25 1063q0 37 26 63l180 183q20 18 46 23t53 -5q25 -10 39 -32.5t14 -49.5v-614q0 -37 -25.5 -62.5t-62.5 -25.5t-62.5 25.5t-25.5 62.5v401l-9 -9l-10 -9l-12 -13q-27 -27 -63.5 -26.5t-61.5 26.5q-26 25 -26 62zM202 25q-6 16 -6 32q0 22 11 43l573 1188q16 37 56 50 q16 6 32 6q22 0 43 -11q37 -16 51 -55q6 -16 5 -32q0 -22 -11 -44l-573 -1188q-16 -37 -55 -50q-16 -6 -33 -5q-22 0 -43 10q-37 17 -50 56zM645 254l182 451q14 35 47 49q16 7 33.5 7t34.5 -7q27 -10 41 -33t14 -49q0 -18 -6 -33l-47 -117l-43 -106l-43 -107h45v35 q0 37 25.5 62.5t62.5 25.5t62.5 -25.5t25.5 -62.5v-35h19q37 0 62.5 -25.5t25.5 -62.5t-25.5 -62.5t-62.5 -25.5h-19v-76q0 -37 -25.5 -62.5t-62.5 -25.5t-62.5 25.5t-25.5 62.5v76h-176q-47 0 -74 39q-16 24 -15 48q-1 17 7 34z" />
<glyph unicode="&#xbd;" horiz-adv-x="1220" d="M25 1063q0 37 26 63l180 183q20 18 46 23t53 -5q25 -10 39 -32.5t14 -49.5v-614q0 -37 -25.5 -62.5t-62.5 -25.5t-62.5 25.5t-25.5 62.5v401l-9 -9l-10 -9l-12 -13q-27 -27 -63.5 -26.5t-61.5 26.5q-26 25 -26 62zM202 25q-6 16 -6 32q0 22 11 43l573 1188q16 37 56 50 q16 6 32 6q22 0 43 -11q37 -16 51 -55q6 -16 5 -32q0 -22 -11 -44l-573 -1188q-16 -37 -55 -50q-16 -6 -33 -5q-22 0 -43 10q-37 17 -50 56zM737 68q0 25 15 45l245 387q12 23 7 41q-6 23 -24.5 35t-43.5 5.5t-33 -26.5q-18 -31 -54 -40q-13 -3 -25 -3q-22 0 -42 10 q-33 18 -42 55q-3 12 -3 23q0 23 13 45q47 84 143 109q30 7 59 7q63 0 119 -34q82 -51 105 -145q7 -29 6 -58q0 -64 -35 -121l-15 -22l-39 -59l-52 -81l-54 -87h107q37 0 62.5 -26t25.5 -62.5t-25.5 -62.5t-62.5 -26h-269q-51 0 -77 46q-11 22 -11 45z" />
<glyph unicode="&#xbe;" horiz-adv-x="1286" d="M44 725q9 35 42 53q20 12 43 13q11 0 24 -4q36 -9 54 -39q16 -29 44 -29q8 0 17 2q18 4 29.5 19.5t11.5 33.5v41q0 23 -16.5 39t-38.5 16q-37 0 -62.5 26t-25.5 62.5t25.5 62.5t62.5 26q31 0 47 28q16 27 0 53q-16 29 -47 29t-47 -29q-18 -31 -54 -39q-13 -3 -26 -4 q-22 0 -41 11q-33 18 -42 54q-3 12 -3 24q0 23 12 45q31 53 85.5 83.5t115.5 30.5t115.5 -30.5t85 -84t30.5 -117t-30 -116.5l-10 -13l-9 -14q49 -61 49 -143v-41q0 -78 -47 -140.5t-125 -82.5q-32 -10 -63 -10q-43 0 -85 18q-73 31 -112 98q-12 22 -12 45q0 11 3 23z M263 25q-6 16 -5 32q0 22 10 43l574 1188q16 37 55 50q16 6 32 6q22 0 44 -11q37 -16 50 -55q6 -16 6 -32q0 -22 -11 -44l-574 -1188q-16 -37 -55 -50q-16 -6 -32 -5q-22 0 -44 10q-37 17 -50 56zM707 254l182 451q14 35 47 49q16 7 33 7t35 -7q27 -10 41 -33t14 -49 q0 -18 -6 -33l-47 -117l-43 -106l-43 -107h45v35q0 37 25.5 62.5t62.5 25.5t62.5 -25.5t25.5 -62.5v-35h18q37 0 62.5 -25.5t25.5 -62.5t-25.5 -62.5t-62.5 -25.5h-18v-76q0 -37 -25.5 -62.5t-62.5 -25.5t-62.5 25.5t-25.5 62.5v76h-177q-47 0 -73 39q-16 24 -16 48 q0 17 8 34z" />
<glyph unicode="&#xbf;" horiz-adv-x="731" d="M51 -90q-1 14 -1 28q0 59 21 115q26 70 79 123l104 105q41 45 41 104v164q0 41 28.5 69.5t69.5 28.5t70 -28.5t29 -69.5v-164q0 -139 -99 -242l-104 -104q-43 -43 -44 -104q0 -5 1 -11q6 -70 59 -106q39 -32 87 -32q14 0 30 3q63 12 100 72q20 35 60 46q14 4 27 4 q24 0 46 -13q35 -23 46 -62q4 -14 4 -27q0 -24 -13 -47q-37 -66 -97 -107.5t-134 -57.5q-33 -7 -67 -7q-38 0 -78 9q-73 16 -132 61q-59 47 -94 111.5t-39 138.5zM274 856q0 49 35 84t84 35t84 -35t35 -84t-35 -84t-84 -35t-84 35t-35 84z" />
<glyph unicode="&#xc0;" horiz-adv-x="884" d="M20 84l328 1188q8 33 34 52t60.5 19t60 -19t34.5 -52l327 -1188q4 -14 4 -28q0 -25 -13 -48q-19 -35 -58 -45q-14 -4 -28 -3q-25 0 -48 12q-35 19 -45 59q-8 25 -17 59l-19 69l-24 87h-348q-14 -47 -24.5 -87l-18.5 -69q-8 -35 -16 -59q-10 -39 -45 -59q-23 -13 -48 -12 q-13 0 -28 3q-39 10 -58 45q-13 23 -13 48q-1 14 3 28zM246 1696q0 35 24 61q27 29 65 32h8q33 0 58 -24l205 -184q29 -27 32 -64v-8q0 -33 -24 -59q-27 -29 -65 -32h-8q-34 0 -60 24l-205 184q-30 29 -30 70zM324 442h237l-59 220l-60 212l-59 -212z" />
<glyph unicode="&#xc1;" horiz-adv-x="884" d="M20 84l328 1188q8 33 34 52t60.5 19t60 -19t34.5 -52l327 -1188q4 -14 4 -28q0 -25 -13 -48q-19 -35 -58 -45q-14 -4 -28 -3q-25 0 -48 12q-35 19 -45 59q-8 25 -17 59l-19 69l-24 87h-348q-14 -47 -24.5 -87l-18.5 -69q-8 -35 -16 -59q-10 -39 -45 -59q-23 -13 -48 -12 q-13 0 -28 3q-39 10 -58 45q-13 23 -13 48q-1 14 3 28zM279 1581l204 184q26 24 59 24h8q38 -3 64 -32q24 -26 24 -59v-7q-3 -38 -32 -65l-205 -184q-26 -24 -58 -24h-8q-38 3 -65 32q-24 26 -24 59q1 42 33 72zM324 442h237l-59 220l-60 212l-59 -212z" />
<glyph unicode="&#xc2;" horiz-adv-x="884" d="M20 84l328 1188q8 33 34 52t60.5 19t60 -19t34.5 -52l327 -1188q4 -14 4 -28q0 -25 -13 -48q-19 -35 -58 -45q-14 -4 -28 -3q-25 0 -48 12q-35 19 -45 59q-8 25 -17 59l-19 69l-24 87h-348q-14 -47 -24.5 -87l-18.5 -69q-8 -35 -16 -59q-10 -39 -45 -59q-23 -13 -48 -12 q-13 0 -28 3q-39 10 -58 45q-13 23 -13 48q-1 14 3 28zM171 1522q5 37 34 59l184 143q23 18 53.5 18.5t55.5 -18.5l184 -143q29 -23 33 -59q1 -6 0 -11q0 -30 -19 -55q-23 -29 -58 -33q-6 -1 -11 0q-29 0 -54 19q-23 16 -45 35l-43 32l-43 33l-43 -33q-23 -16 -41 -32 l-45 -35q-24 -19 -54 -19h-11q-37 4 -60 33q-18 23 -18 52q0 7 1 14zM324 442h237l-59 220l-60 212l-59 -212z" />
<glyph unicode="&#xc3;" horiz-adv-x="884" d="M20 84l328 1188q8 33 34 52t60.5 19t60 -19t34.5 -52l327 -1188q4 -14 4 -28q0 -25 -13 -48q-19 -35 -58 -45q-14 -4 -28 -3q-25 0 -48 12q-35 19 -45 59q-8 25 -17 59l-19 69l-24 87h-348q-14 -47 -24.5 -87l-18.5 -69q-8 -35 -16 -59q-10 -39 -45 -59q-23 -13 -48 -12 q-13 0 -28 3q-39 10 -58 45q-13 23 -13 48q-1 14 3 28zM172 1551q-2 10 -2 20q0 25 14 47q51 76 142 92q21 4 40 4q66 0 121 -43l17 -12q8 -6 15 -7t11 -1q4 2 11.5 4t11.5 12q20 31 56 38q9 2 19 2q26 0 48 -15q31 -20 39 -57q2 -10 2 -18q0 -25 -17 -48 q-23 -37 -59.5 -60.5t-79.5 -31.5q-21 -4 -40 -4q-67 0 -124 43l-16 12q-12 10 -27 6q-10 0 -22 -14q-20 -31 -57 -38q-9 -2 -18 -2q-26 0 -48 15q-29 20 -37 56zM324 442h237l-59 220l-60 212l-59 -212z" />
<glyph unicode="&#xc4;" horiz-adv-x="884" d="M20 84l328 1188q8 33 34 52t60.5 19t60 -19t34.5 -52l327 -1188q4 -14 4 -28q0 -25 -13 -48q-19 -35 -58 -45q-14 -4 -28 -3q-25 0 -48 12q-35 19 -45 59q-8 25 -17 59l-19 69l-24 87h-348q-14 -47 -24.5 -87l-18.5 -69q-8 -35 -16 -59q-10 -39 -45 -59q-23 -13 -48 -12 q-13 0 -28 3q-39 10 -58 45q-13 23 -13 48q-1 14 3 28zM160 1593q0 49 34.5 84t84 35t84 -35t34.5 -84t-34.5 -83.5t-84 -34.5t-84 34.5t-34.5 83.5zM324 442h237l-59 220l-60 212l-59 -212zM487 1593q0 49 35 84t84 35t84 -35t35 -84t-35 -83.5t-84 -34.5t-84 34.5 t-35 83.5z" />
<glyph unicode="&#xc5;" horiz-adv-x="884" d="M20 84l328 1188q8 33 34 52t60.5 19t60 -19t34.5 -52l327 -1188q4 -14 4 -28q0 -25 -13 -48q-19 -35 -58 -45q-14 -4 -28 -3q-25 0 -48 12q-35 19 -45 59q-8 25 -17 59l-19 69l-24 87h-348q-14 -47 -24.5 -87l-18.5 -69q-8 -35 -16 -59q-10 -39 -45 -59q-23 -13 -48 -12 q-13 0 -28 3q-39 10 -58 45q-13 23 -13 48q-1 14 3 28zM242 1614q0 84 58 142.5t142 58.5q86 0 144.5 -58.5t58.5 -142.5q0 -41 -15.5 -78t-43 -64.5t-64.5 -44t-80 -16.5q-41 0 -77.5 16.5t-64.5 44t-43 64.5t-15 78zM324 442h237l-59 220l-60 212l-59 -212zM399 1613.5 q0 -18.5 13.5 -31.5t29.5 -13q18 0 31.5 13t13.5 31.5t-13 31t-32 12.5q-16 0 -29.5 -12.5t-13.5 -31z" />
<glyph unicode="&#xc6;" horiz-adv-x="1263" d="M8 22q-7 18 -6 35q0 20 8 41l529 1180q10 27 35.5 42t54.5 15h493q41 0 70 -28.5t29 -69.5t-29 -69.5t-70 -28.5h-311v-369h270q41 0 70 -28.5t29 -69.5t-29 -70t-70 -29h-270v-409h311q41 0 70 -29t29 -69.5t-29 -69.5t-70 -29h-409q-41 0 -70 29t-29 70v180h-323 l-41 -93l-33 -73l-29 -64q-16 -37 -54 -51q-18 -7 -35 -7q-20 0 -40 9q-37 17 -51 55zM379 442h235v527l-110 -248z" />
<glyph unicode="&#xc7;" horiz-adv-x="806" d="M82 303v696q0 57 18.5 111.5t52 98.5t81 76t102.5 46q46 12 92 12q10 0 21 -1q57 -3 108 -24.5t94 -58t72 -88.5l20 -34q13 -22 14 -47q0 -14 -4 -28q-11 -40 -46 -61q-22 -13 -47 -13q-13 0 -27 4q-39 11 -60 46l-20 35q-25 43 -72 63q-27 11 -54 11l-40 -6 q-49 -12 -78.5 -52t-29.5 -90v-696q0 -51 29.5 -90t78.5 -53q18 -5 37 -5l57 12q47 19 72 62l20 35q20 35 60 46q14 4 27 4q24 0 47 -13q35 -20 46 -60q4 -14 4 -28q0 -25 -14 -47l-20 -35q-35 -59 -86 -99t-113 -59v-45q0 -72 -35.5 -132t-97.5 -95q-23 -14 -48 -14 q-13 0 -26 4q-39 10 -59 45q-13 22 -13 47q0 14 4 28q11 40 46 60q14 10 23.5 24.5t9.5 32.5v45q-111 33 -178.5 124t-67.5 206z" />
<glyph unicode="&#xc8;" horiz-adv-x="753" d="M106 66v1171q0 41 29 69.5t70 28.5h409q41 0 70 -28.5t29 -69.5t-29 -69.5t-70 -28.5h-311v-369h270q41 0 70 -28.5t29 -69.5t-29 -70t-70 -29h-270v-409h311q41 0 70 -29t29 -69.5t-29 -69.5t-70 -29h-409q-41 0 -70 29t-29 70zM213 1696q0 35 25 61q27 29 64 32h8 q33 0 59 -24l204 -184q29 -27 31 -64v-6q0 -35 -24 -61q-25 -29 -64 -32h-8q-34 0 -59 24l-205 184q-31 29 -31 70z" />
<glyph unicode="&#xc9;" horiz-adv-x="753" d="M106 66v1171q0 41 29 69.5t70 28.5h409q41 0 70 -28.5t29 -69.5t-29 -69.5t-70 -28.5h-311v-369h270q41 0 70 -28.5t29 -69.5t-29 -70t-70 -29h-270v-409h311q41 0 70 -29t29 -69.5t-29 -69.5t-70 -29h-409q-41 0 -70 29t-29 70zM244 1581l205 184q26 24 59 24h8 q39 -3 64 -32q25 -27 24 -61v-5q-2 -38 -31 -65l-204 -184q-26 -24 -59 -24h-8q-38 3 -64 32q-25 27 -25 61q0 41 31 70z" />
<glyph unicode="&#xca;" horiz-adv-x="753" d="M106 66v1171q0 41 29 69.5t70 28.5h409q41 0 70 -28.5t29 -69.5t-29 -69.5t-70 -28.5h-311v-369h270q41 0 70 -28.5t29 -69.5t-29 -70t-70 -29h-270v-409h311q41 0 70 -29t29 -69.5t-29 -69.5t-70 -29h-409q-41 0 -70 29t-29 70zM137 1522q4 37 33 59l184 143 q25 18 55.5 18.5t53.5 -18.5l184 -143q29 -23 34 -59q1 -7 1 -14q0 -29 -18 -52q-23 -29 -60 -33q-6 -1 -11 0q-30 0 -54 19q-23 16 -45 35l-42 32l-42 33l-44 -33l-42 -32l-45 -35q-24 -19 -54 -19h-11q-36 4 -58 33q-19 24 -19 55q-1 5 0 11z" />
<glyph unicode="&#xcb;" horiz-adv-x="753" d="M106 66v1171q0 41 29 69.5t70 28.5h409q41 0 70 -28.5t29 -69.5t-29 -69.5t-70 -28.5h-311v-369h270q41 0 70 -28.5t29 -69.5t-29 -70t-70 -29h-270v-409h311q41 0 70 -29t29 -69.5t-29 -69.5t-70 -29h-409q-41 0 -70 29t-29 70zM127 1593q0 49 35 84t84 35t84 -35 t35 -84t-35 -83.5t-84 -34.5t-84 34.5t-35 83.5zM455 1593q0 49 34.5 84t84 35t84 -35t34.5 -84t-34.5 -83.5t-84 -34.5t-84 34.5t-34.5 83.5z" />
<glyph unicode="&#xcc;" horiz-adv-x="409" d="M9 1698q0 33 24 59q27 29 64 32h8q33 0 59 -24l205 -184q29 -27 31 -64q0 -4 1 -8q0 -33 -24 -59q-27 -29 -65 -32h-7q-33 0 -59 24l-205 184q-32 30 -32 72zM106 57v1188q0 41 29 69.5t70 28.5t69.5 -28.5t28.5 -69.5v-1188q0 -41 -28.5 -69.5t-69.5 -28.5t-70 28.5 t-29 69.5z" />
<glyph unicode="&#xcd;" horiz-adv-x="409" d="M41 1581l205 184q26 24 59 24h7q38 -3 65 -32q24 -26 24 -59q0 -4 -1 -7q-3 -38 -31 -65l-205 -184q-26 -24 -59 -24h-8q-38 3 -64 32q-24 26 -24 59q0 42 32 72zM106 57v1188q0 41 29 69.5t70 28.5t69.5 -28.5t28.5 -69.5v-1188q0 -41 -28.5 -69.5t-69.5 -28.5t-70 28.5 t-29 69.5z" />
<glyph unicode="&#xce;" horiz-adv-x="409" d="M-68 1522q4 37 33 59l185 143q25 18 55.5 18.5t54.5 -18.5l184 -143q29 -23 33 -59q1 -6 1 -11q0 -30 -19 -55q-23 -29 -60 -33q-6 -1 -11 0q-30 0 -54 19q-23 16 -45 35l-42 32l-42 33l-43 -33q-23 -16 -41 -32l-45 -35q-24 -19 -55 -19h-11q-37 4 -59 33q-19 24 -19 55 q-1 5 0 11zM106 57v1188q0 41 29 69.5t70 28.5t69.5 -28.5t28.5 -69.5v-1188q0 -41 -28.5 -69.5t-69.5 -28.5t-70 28.5t-29 69.5z" />
<glyph unicode="&#xcf;" horiz-adv-x="409" d="M-78 1593q0 49 35 84t84 35t84 -35t35 -84t-35 -83.5t-84 -34.5t-84 34.5t-35 83.5zM106 57v1188q0 41 29 69.5t70 28.5t69.5 -28.5t28.5 -69.5v-1188q0 -41 -28.5 -69.5t-69.5 -28.5t-70 28.5t-29 69.5zM250 1593q0 49 34.5 84t84 35t84 -35t34.5 -84t-34.5 -83.5 t-84 -34.5t-84 34.5t-34.5 83.5z" />
<glyph unicode="&#xd0;" horiz-adv-x="903" d="M-25 672q0 39 27 65.5t66 26.5h65v473q0 41 28.5 69.5t69.5 28.5h246q72 0 134.5 -26.5t109.5 -73.5t73.5 -109.5t26.5 -134.5v-680q0 -72 -26.5 -134t-73.5 -109.5t-109.5 -74t-134.5 -26.5h-246q-41 0 -69.5 29t-28.5 70v512h-65q-39 0 -66 27.5t-27 66.5zM330 164h147 q61 0 104.5 43t43.5 104v680q0 61 -43 104.5t-105 43.5h-147v-375h106q41 0 67.5 -26.5t26.5 -65.5t-26.5 -66.5t-67.5 -27.5h-106v-414z" />
<glyph unicode="&#xd1;" horiz-adv-x="983" d="M106 57v1188q0 35 22 61.5t54 34.5q12 3 24 3q22 0 42 -10q31 -15 45 -46l129 -268l125 -258l133 -275v758q0 41 28.5 69.5t69.5 28.5t70 -28.5t29 -69.5v-1188q0 -35 -20.5 -61.5t-55.5 -34.5q-12 -3 -24 -3q-22 0 -41 10q-30 15 -46 46l-129 269l-126 258l-132 274 v-758q0 -41 -28.5 -69.5t-69.5 -28.5t-70 28.5t-29 69.5zM220 1551q-2 9 -2 19q0 26 15 48q51 76 142 92q20 4 39 4q65 0 123 -43l16 -12q8 -6 15 -7t12 -1q4 2 11 4t11 12q20 31 56 38q9 2 19 2q26 0 48 -15q31 -20 38 -57q2 -9 2 -18q0 -26 -15 -48q-23 -37 -60 -60.5 t-80 -31.5q-21 -4 -40 -4q-67 0 -124 43l-16 12q-12 10 -27 6q-10 0 -22 -14q-20 -31 -56 -38q-9 -2 -19 -2q-26 0 -48 15q-31 20 -38 56z" />
<glyph unicode="&#xd2;" d="M82 303v696q0 72 27.5 134.5t73.5 109.5t108.5 73.5t134.5 26.5t134.5 -26.5t109.5 -73.5t73.5 -109.5t26.5 -134.5v-696q0 -72 -26.5 -134.5t-73.5 -109.5t-109.5 -73.5t-134.5 -26.5t-134.5 26.5t-108.5 73.5t-73.5 109.5t-27.5 134.5zM231 1696q0 34 23 61 q27 29 65 32h8q34 0 60 -24l205 -184q29 -27 31 -64v-6q0 -35 -25 -61q-27 -29 -64 -32h-8q-33 0 -59 24l-205 184q-31 28 -31 70zM279 303q0 -61 44 -104t103 -43q61 0 104 43t43 104v696q0 61 -43 104.5t-104 43.5q-59 0 -103 -43t-44 -105v-696z" />
<glyph unicode="&#xd3;" d="M82 303v696q0 72 27.5 134.5t73.5 109.5t108.5 73.5t134.5 26.5t134.5 -26.5t109.5 -73.5t73.5 -109.5t26.5 -134.5v-696q0 -72 -26.5 -134.5t-73.5 -109.5t-109.5 -73.5t-134.5 -26.5t-134.5 26.5t-108.5 73.5t-73.5 109.5t-27.5 134.5zM262 1581l205 184q26 24 59 24h8 q38 -3 64 -32q25 -27 25 -61v-5q-2 -38 -31 -65l-205 -184q-26 -24 -60 -24h-8q-39 3 -63 32q-25 27 -25 61q0 41 31 70zM279 303q0 -61 44 -104t103 -43q61 0 104 43t43 104v696q0 61 -43 104.5t-104 43.5q-59 0 -103 -43t-44 -105v-696z" />
<glyph unicode="&#xd4;" d="M82 303v696q0 72 27.5 134.5t73.5 109.5t108.5 73.5t134.5 26.5t134.5 -26.5t109.5 -73.5t73.5 -109.5t26.5 -134.5v-696q0 -72 -26.5 -134.5t-73.5 -109.5t-109.5 -73.5t-134.5 -26.5t-134.5 26.5t-108.5 73.5t-73.5 109.5t-27.5 134.5zM155 1522q5 37 33 59l185 143 q25 18 53 19q31 0 55 -19l185 -143q29 -23 33 -59q1 -7 1 -14q0 -29 -18 -52q-23 -29 -59 -33q-6 -1 -12 0q-30 0 -54 19q-23 16 -45 35l-43 32l-43 33l-43 -33q-23 -16 -41 -32l-45 -35q-24 -19 -54 -19h-12q-37 4 -59 33q-18 23 -18 52q0 7 1 14zM279 303q0 -61 44 -104 t103 -43q61 0 104 43t43 104v696q0 61 -43 104.5t-104 43.5q-59 0 -103 -43t-44 -105v-696z" />
<glyph unicode="&#xd5;" d="M82 303v696q0 72 26.5 134.5t73.5 109.5t109.5 73.5t134.5 26.5q70 0 133.5 -26.5t109.5 -73.5t73.5 -109.5t27.5 -134.5v-696q0 -72 -27.5 -134.5t-73.5 -109.5t-109.5 -73.5t-133.5 -26.5q-72 0 -134.5 26.5t-109.5 73.5t-73.5 109.5t-26.5 134.5zM154 1551 q-2 10 -3 19q0 25 17 48q23 37 59.5 60.5t79.5 31.5q21 4 41 4q67 0 123 -43l16 -12q8 -6 14.5 -7t10.5 -1q4 2 11 4t14 12q20 31 56 38q9 2 18 2q26 0 48 -15q29 -20 37 -57q2 -10 3 -20q0 -25 -15 -46q-51 -76 -141 -92q-21 -4 -41 -4q-66 0 -121 43l-16 12q-8 6 -15.5 7 t-11.5 -1q-14 0 -23 -14q-23 -31 -57 -38q-9 -2 -18 -2q-25 0 -47 15q-31 20 -39 56zM279 303q0 -61 43 -104t104 -43q59 0 103 43t44 104v696q0 61 -44 104.5t-103 43.5q-61 0 -104 -43t-43 -105v-696z" />
<glyph unicode="&#xd6;" d="M82 303v696q0 72 26.5 134.5t73.5 109.5t109.5 73.5t134.5 26.5q70 0 133.5 -26.5t109.5 -73.5t73.5 -109.5t27.5 -134.5v-696q0 -72 -27.5 -134.5t-73.5 -109.5t-109.5 -73.5t-133.5 -26.5q-72 0 -134.5 26.5t-109.5 73.5t-73.5 109.5t-26.5 134.5zM143 1593q0 49 35 84 t84 35t84 -35t35 -84t-35 -83.5t-84 -34.5t-84 34.5t-35 83.5zM279 303q0 -61 43 -104t104 -43q59 0 103 43t44 104v696q0 61 -44 104.5t-103 43.5q-61 0 -104 -43t-43 -105v-696zM471 1593q0 49 35 84t84 35t84 -35t35 -84t-35 -83.5t-84 -34.5t-84 34.5t-35 83.5z" />
<glyph unicode="&#xd7;" d="M123 385q0 41 29 70l135 135l-135 135q-29 29 -29 70t28.5 69.5t69.5 28.5t70 -29l135 -135l135 135q29 29 70 29t69.5 -28.5t28.5 -69.5t-29 -70l-135 -135l135 -135q29 -29 29 -70t-28.5 -69.5t-69.5 -28.5t-70 28l-135 136l-135 -136q-29 -29 -70 -28.5t-69.5 29 t-28.5 69.5z" />
<glyph unicode="&#xd8;" horiz-adv-x="872" d="M-23 -51q-4 13 -3 26q0 23 12 45l114 209q-8 33 -8 74v696q0 72 26.5 134.5t74 109.5t110 73.5t133.5 26.5q66 0 122 -22.5t104 -60.5l61 112q18 35 55 45q13 4 26 4q23 0 46 -12q35 -18 45 -55q4 -13 4 -26q0 -23 -12 -46l-115 -209q4 -18 6 -36.5t2 -37.5v-696 q0 -72 -27.5 -134.5t-73.5 -109.5t-109.5 -73.5t-133.5 -26.5q-66 0 -123 21.5t-102 62.5l-61 -113q-18 -35 -56 -45q-13 -4 -26 -3q-23 0 -45 12q-36 18 -46 55zM289 575l272 502q-20 31 -52 50.5t-73 19.5q-61 0 -104 -43t-43 -105v-424zM309 225q20 -31 53 -50t74 -19 q59 0 103.5 43t44.5 104v424z" />
<glyph unicode="&#xd9;" horiz-adv-x="868" d="M90 303v942q0 41 28.5 69.5t69.5 28.5t70 -28.5t29 -69.5v-942q0 -61 43 -104t104.5 -43t104.5 43t43 104v942q0 41 28.5 69.5t69.5 28.5t69.5 -28.5t28.5 -69.5v-942q0 -72 -26.5 -134.5t-73.5 -109.5t-109.5 -73.5t-134.5 -26.5t-134 26.5t-109.5 73.5t-74 109.5 t-26.5 134.5zM237 1696q0 35 25 61q27 29 65 32h7q33 0 59 -24l205 -184q29 -27 32 -64v-8q0 -33 -24 -59q-27 -29 -65 -32h-8q-34 0 -60 24l-205 184q-31 29 -31 70z" />
<glyph unicode="&#xda;" horiz-adv-x="868" d="M90 303v942q0 41 28.5 69.5t69.5 28.5t70 -28.5t29 -69.5v-942q0 -61 43 -104t104.5 -43t104.5 43t43 104v942q0 41 28.5 69.5t69.5 28.5t69.5 -28.5t28.5 -69.5v-942q0 -72 -26.5 -134.5t-73.5 -109.5t-109.5 -73.5t-134 -26.5t-134 26.5t-110 73.5t-74 109.5 t-26.5 134.5zM270 1581l205 184q26 24 59 24h8q38 -3 64 -32q24 -26 24 -59v-7q-3 -38 -32 -65l-205 -184q-26 -24 -59 -24h-7q-38 3 -65 32q-24 26 -24 59q0 42 32 72z" />
<glyph unicode="&#xdb;" horiz-adv-x="868" d="M90 303v942q0 41 28.5 69.5t69.5 28.5t70 -28.5t29 -69.5v-942q0 -61 44 -104t103 -43q61 0 104.5 43t43.5 104v942q0 41 28.5 69.5t69.5 28.5t69.5 -28.5t28.5 -69.5v-942q0 -72 -26.5 -134.5t-73.5 -109.5t-109.5 -73.5t-134.5 -26.5t-134 26.5t-108.5 73.5t-74 109.5 t-27.5 134.5zM163 1522q5 37 34 59l184 143q23 18 53.5 18.5t54.5 -18.5l185 -143q29 -23 33 -59q1 -6 0 -11q0 -30 -19 -55q-23 -29 -58 -33q-6 -1 -11 0q-29 0 -54 19q-23 16 -45 35l-43 32l-43 33l-43 -33q-23 -16 -41 -32l-45 -35q-24 -19 -54 -19h-11q-37 4 -60 33 q-18 23 -18 52q0 7 1 14z" />
<glyph unicode="&#xdc;" horiz-adv-x="868" d="M90 303v942q0 41 28.5 69.5t69.5 28.5t70 -28.5t29 -69.5v-942q0 -61 44 -104t103 -43q61 0 104.5 43t43.5 104v942q0 41 28.5 69.5t69.5 28.5t69.5 -28.5t28.5 -69.5v-942q0 -72 -26.5 -134.5t-73.5 -109.5t-109.5 -73.5t-134.5 -26.5t-134 26.5t-108.5 73.5t-74 109.5 t-27.5 134.5zM152 1593q0 49 34.5 84t83.5 35t84 -35t35 -84t-35 -83.5t-84 -34.5t-83.5 34.5t-34.5 83.5zM479 1593q0 49 35 84t84 35t84 -35t35 -84t-35 -83.5t-84 -34.5t-84 34.5t-35 83.5z" />
<glyph unicode="&#xdd;" horiz-adv-x="823" d="M32 1276q13 39 50 57q20 11 42 11q16 0 32 -6q39 -13 57 -50l68 -135l63 -129l68 -133l67 133l64 129l67 135q18 37 58 50q16 6 32 6q22 0 43 -11q35 -18 49 -57q6 -16 5 -32q0 -22 -11 -44l-276 -551v-592q0 -41 -28.5 -69.5t-69.5 -28.5t-70 28.5t-29 69.5v592 l-276 551q-11 21 -11 44q0 16 6 32zM248 1581l205 184q26 24 58 24h8q38 -3 65 -32q25 -27 24 -61v-5q-2 -38 -30 -65l-205 -184q-26 -24 -60 -24h-8q-39 3 -65 32q-23 26 -23 61q0 41 31 70z" />
<glyph unicode="&#xde;" horiz-adv-x="819" d="M106 57v1180q0 41 29 69.5t70 28.5t69.5 -28.5t28.5 -69.5v-160h148q70 0 133 -26.5t109 -73.5t74 -109.5t28 -134.5v-123q0 -72 -28 -134t-74 -109.5t-109.5 -74t-132.5 -26.5h-148v-209q0 -41 -28.5 -69.5t-69.5 -28.5t-70 28.5t-29 69.5zM303 463h148q59 0 103 43 t44 104v123q0 61 -44 104.5t-103 43.5h-148v-418z" />
<glyph unicode="&#xdf;" horiz-adv-x="876" d="M113 57v1024q0 84 42 154t113 108q67 35 140 36q8 0 16 -1q82 -4 149 -49q63 -41 98.5 -107.5t35.5 -140.5q0 -18 -2 -28q-6 -84 -58 -148q66 -47 103.5 -117.5t37.5 -156.5v-328q0 -70 -26.5 -131t-72.5 -107.5t-107.5 -73t-130.5 -26.5q-39 0 -66 26.5t-27 65.5 t27 65.5t66 26.5q63 0 108 45.5t45 108.5v328q0 63 -45 108t-108 45q-35 0 -59.5 20.5t-31 53.5t9 61.5t46.5 41.5l37 16q63 27 69 94q4 31 -10 58.5t-41 46.5q-25 16 -55.5 18t-59.5 -14q-29 -14 -44 -41t-15 -58v-1024q0 -39 -26.5 -65.5t-65.5 -26.5t-65.5 26.5 t-26.5 65.5z" />
<glyph unicode="&#xe0;" horiz-adv-x="720" d="M31 270.5q0 61.5 23.5 115.5t63.5 94t94 63.5t116 23.5h112v109q0 33 -18.5 60.5t-48.5 39.5q-20 8 -42 8q-11 0 -22 -2q-33 -6 -55 -30q-27 -27 -66 -27q-37 0 -63 27q-29 29 -29 65.5t29 65.5q63 63 149 81q29 6 57 5q56 0 111 -23q84 -35 133.5 -107.5t49.5 -162.5 v-610q0 -39 -27 -66t-66 -27h-204q-61 0 -115.5 23.5t-94.5 63.5t-63.5 94.5t-23.5 116zM178 1286q0 33 23 60q25 27 60 28h6q32 0 57 -22l204 -185q29 -25 30 -60v-3q0 -34 -23 -62q-23 -27 -59 -28h-5q-33 0 -59 22l-205 185q-29 26 -29 65zM215 270q0 -47 33 -79.5 t80 -32.5h112v225h-112q-47 0 -80 -33t-33 -80z" />
<glyph unicode="&#xe1;" horiz-adv-x="720" d="M31 270.5q0 61.5 23.5 115.5t63.5 94t94 63.5t116 23.5h112v109q0 33 -18.5 60.5t-48.5 39.5q-20 8 -42 8q-11 0 -22 -2q-33 -6 -55 -30q-27 -27 -66 -27q-37 0 -63 27q-29 29 -29 65.5t29 65.5q63 63 149 81q29 6 57 5q56 0 111 -23q84 -35 133.5 -107.5t49.5 -162.5 v-610q0 -39 -27 -66t-66 -27h-204q-61 0 -115.5 23.5t-94.5 63.5t-63.5 94.5t-23.5 116zM207 1167l205 185q26 23 59 22h5q36 -2 61 -28q22 -27 21 -62v-3q-1 -36 -30 -60l-204 -185q-25 -23 -57 -22h-6q-36 2 -60 28q-23 26 -23 59q0 39 29 66zM215 270q0 -47 33 -79.5 t80 -32.5h112v225h-112q-47 0 -80 -33t-33 -80z" />
<glyph unicode="&#xe2;" horiz-adv-x="720" d="M31 270.5q0 61.5 23.5 115.5t63.5 94t94 63.5t116 23.5h112v109q0 33 -18.5 60.5t-49 39.5t-62 6t-56.5 -30q-27 -27 -66 -27q-37 0 -63 27q-29 29 -29 65.5t29 65.5q63 63 149 81q29 6 58 5q57 0 112 -23q82 -35 131.5 -107.5t49.5 -162.5v-610q0 -39 -27 -66t-66 -27 h-204q-61 0 -115.5 23.5t-94.5 63.5t-63.5 94.5t-23.5 116zM133 1167l184 144q23 16 51.5 16t51.5 -16l184 -144q27 -23 32 -55q1 -6 1 -12q0 -26 -18 -49q-23 -29 -56 -33q-5 -1 -10 -1q-27 0 -51 19l-47 37l-43 34l-43 34l-43 -34l-43 -34l-47 -37q-24 -19 -52 -19 q-5 0 -10 1q-33 4 -55 33q-19 24 -19 51q0 39 33 65zM215 270q0 -47 33 -79.5t80 -32.5h112v225h-112q-47 0 -80 -33t-33 -80z" />
<glyph unicode="&#xe3;" horiz-adv-x="720" d="M31 270.5q0 61.5 23.5 115.5t63.5 94t94 63.5t116 23.5h112v109q0 33 -18.5 60.5t-49 39.5t-62 6t-56.5 -30q-27 -27 -66 -27q-37 0 -63 27q-29 29 -29 65.5t29 65.5q63 63 149 81q29 6 58 5q57 0 112 -23q82 -35 131.5 -107.5t49.5 -162.5v-610q0 -39 -27 -66t-66 -27 h-204q-61 0 -115.5 23.5t-94.5 63.5t-63.5 94.5t-23.5 116zM103 1144q-2 9 -2 18q0 23 14 44q49 72 137 88q20 4 38 4q64 0 120 -43l16 -12q16 -10 31 -6q4 0 12 3t14 13q20 29 54 36q9 2 18 2q23 0 43 -13q29 -20 36 -54q2 -9 2 -19q0 -23 -13 -44q-49 -72 -138 -88 q-20 -4 -38 -4q-64 0 -119 43l-17 12q-16 10 -30 6q-4 0 -12.5 -3t-14.5 -13q-20 -29 -53 -36q-9 -2 -18 -2q-23 0 -44 14q-29 20 -36 54zM215 270q0 -47 33 -79.5t80 -32.5h112v225h-112q-47 0 -80 -33t-33 -80z" />
<glyph unicode="&#xe4;" horiz-adv-x="720" d="M31 270.5q0 61.5 23.5 115.5t63.5 94t94 63.5t116 23.5h112v109q0 33 -18.5 60.5t-49 39.5t-62 6t-56.5 -30q-27 -27 -66 -27q-37 0 -63 27q-29 29 -29 65.5t29 65.5q63 63 149 81q29 6 58 5q57 0 112 -23q82 -35 131.5 -107.5t49.5 -162.5v-610q0 -39 -27 -66t-66 -27 h-204q-61 0 -115.5 23.5t-94.5 63.5t-63.5 94.5t-23.5 116zM92 1184q0 47 33 79.5t80 32.5t79.5 -32.5t32.5 -79.5t-32.5 -80t-79.5 -33t-80 33t-33 80zM215 270q0 -47 33 -79.5t80 -32.5h112v225h-112q-47 0 -80 -33t-33 -80zM420 1184q0 47 32.5 79.5t80 32.5t80 -32.5 t32.5 -79.5t-32.5 -80t-80 -33t-80 33t-32.5 80z" />
<glyph unicode="&#xe5;" horiz-adv-x="720" d="M31 270.5q0 61.5 23.5 115.5t63.5 94t94 63.5t116 23.5h112v109q0 33 -18.5 60.5t-49 39.5t-62 6t-54.5 -30q-29 -27 -68 -27q-37 0 -63 27q-29 29 -29 65.5t29 65.5q63 63 149 81q29 6 58 5q57 0 112 -23q82 -35 131.5 -107.5t49.5 -162.5v-610q0 -39 -27 -66t-66 -27 h-204q-61 0 -115.5 23.5t-94.5 63.5t-63.5 94.5t-23.5 116zM172 1204q0 82 57.5 139.5t139.5 57.5t139 -57.5t57 -139.5t-57 -139t-139 -57t-139.5 57t-57.5 139zM215 270q0 -47 33 -79.5t80 -32.5h112v225h-112q-47 0 -80 -33t-33 -80zM319 1204.5q0 -20.5 14.5 -35 t35 -14.5t35 14.5t14.5 35t-14.5 34.5t-35 14t-35 -14t-14.5 -34.5z" />
<glyph unicode="&#xe6;" horiz-adv-x="1107" d="M38 204q-6 29 -6 57q0 57 23 114q35 86 109 135t166 49h112v113q0 35 -19.5 62.5t-49.5 41.5q-22 8 -44 8l-22 -2q-33 -6 -57 -30q-29 -29 -66 -29t-65 29q-27 27 -27 63q0 39 27 66q66 66 152 83q29 6 58 5q57 0 113 -23q51 -20 93 -59q41 39 93 60.5t111 21.5 q61 0 115.5 -23.5t94.5 -63.5t63.5 -94.5t23.5 -115.5v-205q0 -39 -26.5 -65.5t-65.5 -26.5h-317v-113q0 -35 18.5 -62.5t50.5 -41.5q20 -8 43 -8q11 0 22 2q34 6 58 30q27 29 64 29q39 0 65 -29q29 -29 29 -65.5t-29 -65.5q-63 -63 -150 -81q-29 -6 -58 -5q-58 0 -115 23 q-53 20 -90 59q-41 -39 -93 -59q-56 -23 -113 -23q-29 0 -58 5q-87 17 -152 81q-64 66 -81 153zM218 240q7 -33 31.5 -57.5t57.5 -30.5q11 -2 22 -2l44 8q31 14 50 41.5t19 62.5v113h-112q-35 0 -63.5 -18.5t-41.5 -51.5q-10 -22 -9 -44q0 -10 2 -21zM627 559h225v113 q0 47 -33 79.5t-80 32.5t-79.5 -32.5t-32.5 -79.5v-113z" />
<glyph unicode="&#xe7;" horiz-adv-x="677" d="M88 262v410q0 92 49 165.5t135 108.5q56 23 114 23q29 0 57 -5q87 -17 153 -83q27 -27 27 -66q0 -37 -27 -63q-29 -29 -65.5 -29t-65.5 29q-25 25 -57 30q-11 2 -22 2l-44 -8q-33 -14 -51.5 -41.5t-18.5 -62.5v-410q0 -35 18.5 -62.5t51.5 -41.5q18 -8 41 -9h2h2 q45 0 78 33q29 29 65.5 29t65.5 -29q27 -29 27 -65.5t-27 -65.5q-53 -49 -119 -71v-48q0 -70 -33.5 -129t-93.5 -94q-23 -12 -47 -12q-12 0 -23 3q-36 9 -57 44q-12 22 -12 46q0 12 3 24q9 37 44 55q35 25 35 63v48q-4 2 -10.5 4t-10.5 4q-86 35 -135 108.5t-49 165.5z" />
<glyph unicode="&#xe8;" horiz-adv-x="753" d="M88 262v410q0 61 23.5 115.5t63.5 94.5t94.5 63.5t115.5 23.5t115.5 -23.5t94.5 -63.5t63.5 -94.5t23.5 -115.5v-205q0 -39 -26.5 -65.5t-65.5 -26.5h-318v-113q0 -35 19.5 -62.5t50.5 -41.5q22 -8 44 -8l22 2q33 6 57 30q29 29 65.5 29t65.5 -29q27 -29 27 -65.5 t-27 -65.5q-66 -63 -153 -81q-29 -6 -57 -5q-57 0 -114 23q-86 35 -135 108.5t-49 165.5zM196 1284q0 34 21 62q25 27 61 28h5q33 0 59 -22l205 -185q27 -25 28 -60q0 -3 1 -6q0 -33 -23 -59q-25 -27 -60 -28h-6q-32 0 -57 22l-205 185q-29 25 -29 63zM272 559h226v113 q0 47 -33 79.5t-80 32.5t-80 -32.5t-33 -79.5v-113z" />
<glyph unicode="&#xe9;" horiz-adv-x="753" d="M88 262v410q0 61 23.5 115.5t63.5 94.5t94.5 63.5t115.5 23.5t115.5 -23.5t94.5 -63.5t63.5 -94.5t23.5 -115.5v-205q0 -39 -26.5 -65.5t-65.5 -26.5h-318v-113q0 -35 19.5 -62.5t50.5 -41.5q22 -8 44 -8l22 2q33 6 57 30q29 29 65.5 29t65.5 -29q27 -29 27 -65.5 t-27 -65.5q-66 -63 -153 -81q-29 -6 -57 -5q-57 0 -114 23q-86 35 -135 108.5t-49 165.5zM225 1167l205 185q25 23 57 22h6q36 -2 60 -28q23 -26 23 -59q0 -3 -1 -6q-2 -36 -28 -60l-205 -185q-26 -23 -59 -22h-5q-36 2 -61 28q-22 27 -21 62q-1 38 29 63zM272 559h226v113 q0 47 -33 79.5t-80 32.5t-80 -32.5t-33 -79.5v-113z" />
<glyph unicode="&#xea;" horiz-adv-x="753" d="M88 262v410q0 61 23.5 115.5t63.5 94.5t94.5 63.5t115.5 23.5t115.5 -23.5t94.5 -63.5t63.5 -94.5t23.5 -115.5v-205q0 -39 -26.5 -65.5t-65.5 -26.5h-318v-113q0 -35 19.5 -62.5t50.5 -41.5q22 -8 44 -8l22 2q33 6 57 30q29 29 65.5 29t65.5 -29q27 -29 27 -65.5 t-27 -65.5q-66 -63 -153 -81q-29 -6 -57 -5q-57 0 -114 23q-86 35 -135 108.5t-49 165.5zM119 1112q4 33 31 55l184 144q23 16 51.5 16t50.5 -16l185 -144q33 -26 33 -65q0 -27 -19 -51q-20 -29 -54 -33q-5 -1 -11 -1q-28 0 -52 19l-47 37l-43 34l-43 34l-43 -34l-43 -34 l-47 -37q-23 -19 -50 -19q-5 0 -11 1q-34 4 -56 33q-17 24 -17 50q0 6 1 11zM272 559h226v113q0 47 -33 79.5t-80 32.5t-80 -32.5t-33 -79.5v-113z" />
<glyph unicode="&#xeb;" horiz-adv-x="753" d="M88 262v410q0 61 23.5 115.5t63.5 94.5t94.5 63.5t115.5 23.5t115.5 -23.5t94.5 -63.5t63.5 -94.5t23.5 -115.5v-205q0 -39 -26.5 -65.5t-65.5 -26.5h-318v-113q0 -35 19.5 -62.5t50.5 -41.5q22 -8 44 -8l22 2q33 6 57 30q29 29 65.5 29t65.5 -29q27 -29 27 -65.5 t-27 -65.5q-66 -63 -153 -81q-29 -6 -57 -5q-57 0 -114 23q-84 35 -134 108.5t-50 165.5zM109 1184q0 47 32.5 79.5t79.5 32.5t80 -32.5t33 -79.5t-33 -80t-80 -33t-79.5 33t-32.5 80zM272 559h226v113q0 47 -33 79.5t-80 32.5t-80 -32.5t-33 -79.5v-113zM436 1184 q0 47 33 79.5t80 32.5t79.5 -32.5t32.5 -79.5t-32.5 -80t-79.5 -33t-80 33t-33 80z" />
<glyph unicode="&#xec;" horiz-adv-x="409" d="M-26 1284q0 34 24 62q23 27 59 28h6q33 0 58 -22l205 -185q29 -25 29 -60v-3q0 -34 -23 -62q-25 -27 -61 -28h-5q-32 0 -57 22l-205 185q-30 25 -30 63zM113 57v820q0 39 27.5 65.5t64.5 26.5q39 0 65.5 -27t26.5 -65v-820q0 -39 -26.5 -65.5t-65.5 -26.5 q-37 0 -64.5 26.5t-27.5 65.5z" />
<glyph unicode="&#xed;" horiz-adv-x="409" d="M84 1167l205 185q26 23 59 22h5q36 -2 59 -28q24 -28 23 -62v-3q-1 -36 -29 -60l-205 -185q-25 -23 -57 -22h-6q-36 2 -60 28q-24 28 -24 62q0 38 30 63zM113 57v820q0 39 26.5 65.5t65.5 26.5q37 0 64.5 -27t27.5 -65v-820q0 -39 -27.5 -65.5t-64.5 -26.5 q-39 0 -65.5 26.5t-26.5 65.5z" />
<glyph unicode="&#xee;" horiz-adv-x="409" d="M-29 1167l185 144q23 16 49 16q29 0 51 -16l184 -144q29 -23 33 -55q1 -5 1 -11q0 -27 -17 -50q-23 -29 -57 -33q-5 -1 -10 -1q-28 0 -50 19l-47 37l-43 34l-43 34l-44 -34l-44 -34l-47 -37q-23 -19 -51 -19q-5 0 -10 1q-34 4 -54 33q-19 24 -19 51q0 39 33 65zM115 57 v820q0 39 26.5 65.5t65.5 26.5q37 0 64.5 -27t27.5 -65v-820q0 -39 -27.5 -65.5t-64.5 -26.5q-39 0 -65.5 26.5t-26.5 65.5z" />
<glyph unicode="&#xef;" horiz-adv-x="409" d="M-72 1184q0 47 33 79.5t80 32.5t80 -32.5t33 -79.5t-33 -80t-80 -33t-80 33t-33 80zM113 57v820q0 39 26.5 65.5t65.5 26.5t65.5 -27t26.5 -65v-820q0 -39 -26.5 -65.5t-65.5 -26.5t-65.5 26.5t-26.5 65.5zM256 1184q0 47 33 79.5t80 32.5t79.5 -32.5t32.5 -79.5 t-32.5 -80t-79.5 -33t-80 33t-33 80z" />
<glyph unicode="&#xf0;" horiz-adv-x="770" d="M88 262v410q0 61 23.5 115.5t63.5 94.5t94.5 63.5t115.5 23.5q10 0 21.5 -1t21.5 -3l-25 44q-12 22 -28 42l-64 -43q-22 -15 -46 -15q-10 0 -19 2q-35 8 -58 37q-15 22 -14 46q0 10 2 20q8 35 37 57l39 25q-10 8 -22 15l-21 13q-33 23 -40 60q-2 9 -2 17q0 27 17 52 q20 33 58 40q9 2 17 2q27 0 52 -17q27 -16 51.5 -35.5t47.5 -40.5l49 33q22 15 46 15q10 0 20 -3q36 -8 57 -37q15 -22 14 -46q0 -10 -2 -20q-8 -36 -37 -57l-29 -18q16 -23 29.5 -44.5t26.5 -45.5q47 -90 72.5 -188.5t25.5 -202.5v-410q0 -61 -23.5 -115.5t-63.5 -94.5 t-94.5 -63.5t-115.5 -23.5t-115.5 23.5t-94.5 63.5t-63.5 94.5t-23.5 115.5zM272 262q0 -47 33 -79.5t80 -32.5t80 32.5t33 79.5v410q0 47 -33 79.5t-80 32.5t-80 -32.5t-33 -79.5v-410z" />
<glyph unicode="&#xf1;" horiz-adv-x="802" d="M113 57v811q0 39 26.5 66t65.5 27h205q61 0 115.5 -24t94 -63.5t63.5 -94t24 -115.5v-607q0 -39 -27 -65.5t-66 -26.5t-65.5 26.5t-26.5 65.5v607q0 47 -32.5 79.5t-79.5 32.5h-113v-719q0 -39 -26.5 -65.5t-65.5 -26.5t-65.5 26.5t-26.5 65.5zM143 1144q-2 8 -1 16 q0 24 14 46q49 72 137 88q20 4 38 4q64 0 120 -43l16 -12q16 -10 31 -6q4 0 12 3t14 13q18 29 53 36q9 2 18 2q23 0 44 -13q29 -20 36 -54q2 -9 2 -19q0 -23 -13 -44q-49 -72 -138 -88q-20 -4 -38 -4q-64 0 -121 43l-17 12q-8 6 -16 7.5t-15 -1.5q-14 0 -24 -16 q-20 -29 -54 -36q-9 -2 -19 -2q-23 0 -44 14q-29 20 -35 54z" />
<glyph unicode="&#xf2;" horiz-adv-x="770" d="M88 262v410q0 61 23.5 115.5t63.5 94.5t94.5 63.5t115.5 23.5t115.5 -23.5t94.5 -63.5t63.5 -94.5t23.5 -115.5v-410q0 -61 -23.5 -115.5t-63.5 -94.5t-94.5 -63.5t-115.5 -23.5t-115.5 23.5t-94.5 63.5t-63.5 94.5t-23.5 115.5zM194 1286q0 33 23 60q25 27 61 28h5 q32 0 57 -22l205 -185q29 -25 29 -60q0 -2 1 -3q0 -34 -22 -62q-25 -27 -60 -28h-6q-33 0 -59 22l-205 185q-29 26 -29 65zM272 262q0 -47 33 -79.5t80 -32.5t80 32.5t33 79.5v410q0 47 -33 79.5t-80 32.5t-80 -32.5t-33 -79.5v-410z" />
<glyph unicode="&#xf3;" horiz-adv-x="770" d="M88 262v410q0 61 23.5 115.5t63.5 94.5t94.5 63.5t115.5 23.5t115.5 -23.5t94.5 -63.5t63.5 -94.5t23.5 -115.5v-410q0 -61 -23.5 -115.5t-63.5 -94.5t-94.5 -63.5t-115.5 -23.5t-115.5 23.5t-94.5 63.5t-63.5 94.5t-23.5 115.5zM223 1167l205 185q26 23 59 22h6 q36 -2 60 -28q23 -26 23 -60q0 -3 -1 -5q-2 -36 -28 -60l-205 -185q-26 -23 -59 -22h-5q-36 2 -61 28q-23 26 -23 59q0 39 29 66zM272 262q0 -47 33 -79.5t80 -32.5t80 32.5t33 79.5v410q0 47 -33 79.5t-80 32.5t-80 -32.5t-33 -79.5v-410z" />
<glyph unicode="&#xf4;" horiz-adv-x="770" d="M88 262v410q0 61 23.5 115.5t63.5 94.5t94.5 63.5t115.5 23.5t115.5 -23.5t94.5 -63.5t63.5 -94.5t23.5 -115.5v-410q0 -61 -23.5 -115.5t-63.5 -94.5t-94.5 -63.5t-115.5 -23.5t-115.5 23.5t-94.5 63.5t-63.5 94.5t-23.5 115.5zM150 1167l184 144q23 16 51.5 16 t50.5 -16l185 -144q27 -23 31 -55q1 -6 1 -12q0 -26 -18 -49q-23 -29 -55 -33q-5 -1 -10 -1q-27 0 -52 19l-47 37l-43 34l-43 34l-43 -34l-43 -34l-47 -37q-24 -19 -52 -19q-5 0 -10 1q-33 4 -55 33q-19 24 -19 51q1 39 34 65zM272 262q0 -47 33 -79.5t80 -32.5t80 32.5 t33 79.5v410q0 47 -33 79.5t-80 32.5t-80 -32.5t-33 -79.5v-410z" />
<glyph unicode="&#xf5;" horiz-adv-x="770" d="M88 262v410q0 61 23.5 115.5t63.5 94.5t94.5 63.5t115.5 23.5t115.5 -23.5t94.5 -63.5t63.5 -94.5t23.5 -115.5v-410q0 -61 -23.5 -115.5t-63.5 -94.5t-94.5 -63.5t-115.5 -23.5t-115.5 23.5t-94.5 63.5t-63.5 94.5t-23.5 115.5zM120 1144q-2 9 -2 18q0 23 13 44 q53 72 137 88q20 4 39 4q64 0 119 -43l16 -12q16 -10 31 -6q16 0 27 16q20 29 54 36q9 2 19 2q23 0 43 -13q29 -20 35 -54q2 -8 2 -17q0 -24 -14 -46q-23 -35 -59.5 -57.5t-77.5 -30.5q-20 -4 -39 -4q-64 0 -119 43l-16 12q-16 10 -31 6q-4 0 -12.5 -3t-14.5 -13 q-18 -29 -52 -36q-9 -2 -18 -2q-23 0 -44 14q-29 20 -36 54zM272 262q0 -47 33 -79.5t80 -32.5t80 32.5t33 79.5v410q0 47 -33 79.5t-80 32.5t-80 -32.5t-33 -79.5v-410z" />
<glyph unicode="&#xf6;" horiz-adv-x="770" d="M88 262v410q0 61 23.5 115.5t63.5 94.5t94.5 63.5t115.5 23.5t115.5 -23.5t94.5 -63.5t63.5 -94.5t23.5 -115.5v-410q0 -61 -23.5 -115.5t-63.5 -94.5t-94.5 -63.5t-115.5 -23.5t-115.5 23.5t-94.5 63.5t-63.5 94.5t-23.5 115.5zM109 1184q0 47 32.5 79.5t79.5 32.5 t80 -32.5t33 -79.5t-33 -80t-80 -33t-79.5 33t-32.5 80zM272 262q0 -47 33 -79.5t80 -32.5t80 32.5t33 79.5v410q0 47 -33 79.5t-80 32.5t-80 -32.5t-33 -79.5v-410zM436 1184q0 47 33 79.5t80 32.5t80 -32.5t33 -79.5t-33 -80t-80 -33t-80 33t-33 80z" />
<glyph unicode="&#xf7;" d="M82 590q0 41 28.5 69.5t69.5 28.5h492q41 0 69.5 -28.5t28.5 -69.5t-28.5 -69.5t-69.5 -28.5h-492q-41 0 -69.5 28.5t-28.5 69.5zM307 323.5q0 49.5 35 84t84 34.5t84 -34.5t35 -84t-35 -84t-84 -34.5t-84 34.5t-35 84zM307 856q0 49 35 84t84 35t84 -35t35 -84t-35 -84 t-84 -35t-84 35t-35 84z" />
<glyph unicode="&#xf8;" horiz-adv-x="790" d="M24 -47q-3 12 -4 23q0 22 13 42l84 144q-18 45 -19 100v410q0 61 23.5 115.5t63.5 94.5t94.5 63.5t115.5 23.5q90 0 162 -49l49 81q18 33 53 42q12 3 23 4q22 0 43 -13q33 -18 42 -53q3 -12 3 -23q0 -23 -12 -45l-84 -141q18 -47 18 -100v-410q0 -61 -23.5 -115.5 t-63.5 -94.5t-94 -63.5t-116 -23.5q-45 0 -87 13.5t-77 35.5l-47 -84q-18 -31 -53 -40q-12 -3 -23 -3q-23 0 -45 13q-30 18 -39 53zM283 449l182 311q-29 25 -70 24q-47 0 -79.5 -32.5t-32.5 -79.5v-223zM326 174q27 -25 69 -24q47 0 80 32.5t33 79.5v223z" />
<glyph unicode="&#xf9;" horiz-adv-x="802" d="M96 270v607q0 39 26.5 65.5t65.5 26.5t66 -27t27 -65v-607q0 -47 32.5 -79.5t79.5 -32.5h113v719q0 39 26.5 65.5t65.5 26.5t65.5 -27t26.5 -65v-811q0 -39 -26.5 -66t-65.5 -27h-205q-61 0 -115.5 23.5t-94.5 63.5t-63.5 94.5t-23.5 115.5zM204 1284q0 34 23 62 q23 27 59 28h5q33 0 59 -22l205 -185q27 -25 29 -60v-6q0 -33 -23 -59q-25 -27 -60 -28h-6q-32 0 -57 22l-205 185q-29 25 -29 63z" />
<glyph unicode="&#xfa;" horiz-adv-x="802" d="M96 270v607q0 39 28 65.5t64 26.5q39 0 66 -27t27 -65v-607q0 -47 32.5 -79.5t79.5 -32.5h113v719q0 39 27.5 65.5t64.5 26.5q39 0 65.5 -27t26.5 -65v-811q0 -39 -26.5 -66t-65.5 -27h-205q-61 0 -115.5 23.5t-94.5 63.5t-63.5 94.5t-23.5 115.5zM233 1167l205 185 q25 23 57 22h6q36 -2 60 -28q24 -28 24 -62v-3q-1 -36 -30 -60l-205 -185q-26 -23 -59 -22h-5q-36 2 -59 28q-24 28 -23 62q-1 38 29 63z" />
<glyph unicode="&#xfb;" horiz-adv-x="802" d="M96 270v607q0 39 28 65.5t64 26.5q39 0 66 -27t27 -65v-607q0 -47 32.5 -79.5t79.5 -32.5h113v719q0 39 27.5 65.5t64.5 26.5q39 0 65.5 -27t26.5 -65v-811q0 -39 -26.5 -66t-65.5 -27h-205q-61 0 -115.5 23.5t-94.5 63.5t-63.5 94.5t-23.5 115.5zM127 1112q4 33 33 55 l184 144q23 16 49 16q29 0 51 -16l185 -144q33 -26 33 -65q0 -27 -19 -51q-20 -29 -54 -33q-5 -1 -10 -1q-28 0 -51 19l-47 37l-44 34l-44 34l-43 -34l-43 -34l-47 -37q-23 -19 -50 -19q-5 0 -10 1q-34 4 -57 33q-17 24 -17 50q0 6 1 11z" />
<glyph unicode="&#xfc;" horiz-adv-x="802" d="M96 270v607q0 39 28 65.5t64 26.5q39 0 66 -27t27 -65v-607q0 -47 32.5 -79.5t79.5 -32.5h113v719q0 39 27.5 65.5t64.5 26.5q39 0 65.5 -27t26.5 -65v-811q0 -39 -26.5 -66t-65.5 -27h-205q-61 0 -114.5 23.5t-94.5 63.5t-64.5 94.5t-23.5 115.5zM117 1184 q0 47 32.5 79.5t79.5 32.5t80 -32.5t33 -79.5t-33 -80t-80 -33t-79.5 33t-32.5 80zM444 1184q0 47 33 79.5t80 32.5t80 -32.5t33 -79.5t-33 -80t-80 -33t-80 33t-33 80z" />
<glyph unicode="&#xfd;" horiz-adv-x="755" d="M10 -352q0 39 26.5 65.5t65.5 26.5t69 22.5t40 57.5l72 237l-240 793q-4 13 -4 26q0 23 12 45q17 34 55 44q13 4 26 3l44 -11q35 -17 45 -54l158 -524l156 524q12 37 46 54q21 11 43 11q13 0 25 -3q37 -10 56 -44q12 -22 11 -45q0 -13 -3 -26l-246 -819l-80 -264 q-29 -96 -106 -152q-78 -59 -179 -59q-39 0 -65.5 26.5t-26.5 65.5zM217 1167l205 185q26 23 59 22h5q36 -2 59 -28q24 -28 23 -62v-3q-1 -36 -29 -60l-205 -185q-25 -23 -57 -22h-6q-36 2 -60 28q-24 28 -24 62q0 38 30 63z" />
<glyph unicode="&#xfe;" horiz-adv-x="794" d="M113 -352v1638q0 39 26.5 65.5t65.5 26.5t65.5 -26.5t26.5 -65.5v-317h113q61 0 115.5 -23.5t94 -63.5t63.5 -94.5t24 -115.5v-410q0 -61 -24 -115.5t-63.5 -94.5t-94 -63.5t-115.5 -23.5h-113v-317q0 -39 -26.5 -65.5t-65.5 -26.5t-65.5 26.5t-26.5 65.5zM297 150h113 q47 0 79.5 32.5t32.5 79.5v410q0 47 -32.5 79.5t-79.5 32.5h-113v-634z" />
<glyph unicode="&#xff;" horiz-adv-x="755" d="M10 -352q0 39 26.5 65.5t65.5 26.5t69 22.5t40 57.5l72 237l-238 793q-5 15 -5 29q0 21 11 42q18 34 55 44q14 4 27 3q22 0 44 -11q34 -17 44 -54l158 -524l158 524q10 37 44 54q21 11 43 11q13 0 27 -3q35 -10 54 -44q12 -22 11 -45q0 -13 -3 -26l-246 -819l-80 -264 q-29 -96 -106 -152q-78 -59 -179 -59q-39 0 -65.5 26.5t-26.5 65.5zM102 1184q0 47 33 79.5t80 32.5t80 -32.5t33 -79.5t-33 -80t-80 -33t-80 33t-33 80zM430 1184q0 47 33 79.5t80 32.5t79.5 -32.5t32.5 -79.5t-32.5 -80t-79.5 -33t-80 33t-33 80z" />
<glyph unicode="&#x152;" horiz-adv-x="1220" d="M82 303v696q0 72 26.5 134.5t73.5 109.5t109.5 73.5t134.5 26.5q90 0 170 -45q27 37 76 37h409q41 0 70 -28.5t29 -69.5t-29 -69.5t-70 -28.5h-311v-181v-188h270q41 0 70 -28.5t29 -69.5t-29 -70t-70 -29h-270v-229v-180h311q41 0 70 -29t29 -69.5t-29 -69.5t-70 -29 h-409q-49 0 -76 37q-80 -45 -170 -45q-72 0 -134.5 26.5t-109.5 73.5t-73.5 109.5t-26.5 134.5zM279 303q0 -61 43 -104t104 -43t104 43t43 104v41v614v41q0 61 -43 104.5t-104 43.5t-104 -43t-43 -105v-696z" />
<glyph unicode="&#x153;" horiz-adv-x="1163" d="M88 262v410q0 61 23.5 115.5t63.5 94.5t94.5 63.5t115.5 23.5q59 0 111.5 -21.5t93.5 -60.5q41 39 93 60.5t112 21.5q61 0 115.5 -23.5t94 -63.5t63.5 -94.5t24 -115.5v-205q0 -39 -27 -65.5t-66 -26.5h-317v-113q0 -35 18.5 -62.5t51.5 -41.5q20 -8 42 -8q11 0 22 2 q34 6 58 30q27 29 64 29q39 0 66 -29q29 -29 28.5 -65.5t-28.5 -65.5q-63 -63 -151 -81q-29 -6 -58 -5q-58 0 -115 23q-53 20 -90 59q-41 -39 -93.5 -60.5t-111.5 -21.5q-61 0 -115.5 23.5t-94.5 63.5t-63.5 94.5t-23.5 115.5zM272 262q0 -47 33 -79.5t80 -32.5t80 32.5 t33 79.5v410q0 47 -33 79.5t-80 32.5t-80 -32.5t-33 -79.5v-410zM682 559h225v113q0 47 -32.5 79.5t-79.5 32.5t-80 -32.5t-33 -79.5v-113z" />
<glyph unicode="&#x178;" horiz-adv-x="823" d="M31 1276q12 39 49 57q21 11 43 11q16 0 32 -6q38 -13 56 -50l68 -135l63 -129l68 -133l67 133l64 129l67 135q18 37 58 50q16 6 32 6q22 0 43 -11q37 -18 50 -57q5 -16 4 -31q0 -23 -11 -45l-276 -551v-592q0 -41 -28.5 -69.5t-69.5 -28.5t-70 28.5t-29 69.5v592 l-276 551q-9 21 -10 43q1 16 6 33zM127 1593q0 49 35 84t84 35t84 -35t35 -84t-35 -83.5t-84 -34.5t-84 34.5t-35 83.5zM455 1593q0 49 34.5 84t84 35t84 -35t34.5 -84t-34.5 -83.5t-84 -34.5t-84 34.5t-34.5 83.5z" />
<glyph unicode="&#x2c6;" horiz-adv-x="1024" d="M246 1112q4 33 30 55l185 144q23 16 51.5 16t50.5 -16l185 -144q33 -26 33 -65q0 -27 -19 -51q-20 -29 -54 -33q-5 -1 -11 -1q-28 0 -52 19l-47 37l-43 34l-43 34l-43 -34l-43 -34l-47 -37q-24 -19 -52 -19q-5 0 -10 1q-33 4 -55 33q-17 24 -17 50q0 6 1 11z" />
<glyph unicode="&#x2dc;" horiz-adv-x="1024" d="M247 1144q-2 9 -2 18q0 23 13 44q53 72 137 88q20 4 39 4q64 0 119 -43l16 -12q16 -10 31 -6q16 0 27 16q20 29 54 36q9 2 18 2q23 0 44 -13q29 -20 35 -54q2 -8 2 -17q0 -24 -14 -46q-23 -35 -59.5 -57.5t-77.5 -30.5q-20 -4 -39 -4q-64 0 -119 43l-16 12q-16 10 -31 6 q-4 0 -12.5 -3t-14.5 -13q-18 -29 -52 -36q-9 -2 -18 -2q-23 0 -44 14q-29 20 -36 54z" />
<glyph unicode="&#x2000;" horiz-adv-x="907" />
<glyph unicode="&#x2001;" horiz-adv-x="1814" />
<glyph unicode="&#x2002;" horiz-adv-x="907" />
<glyph unicode="&#x2003;" horiz-adv-x="1814" />
<glyph unicode="&#x2004;" horiz-adv-x="604" />
<glyph unicode="&#x2005;" horiz-adv-x="452" />
<glyph unicode="&#x2006;" horiz-adv-x="301" />
<glyph unicode="&#x2007;" horiz-adv-x="301" />
<glyph unicode="&#x2008;" horiz-adv-x="225" />
<glyph unicode="&#x2009;" horiz-adv-x="362" />
<glyph unicode="&#x200a;" horiz-adv-x="100" />
<glyph unicode="&#x2010;" d="M82 590q0 41 28.5 69.5t69.5 28.5h492q41 0 69.5 -28.5t28.5 -69.5t-28.5 -69.5t-69.5 -28.5h-492q-41 0 -69.5 28.5t-28.5 69.5z" />
<glyph unicode="&#x2011;" d="M82 590q0 41 28.5 69.5t69.5 28.5h492q41 0 69.5 -28.5t28.5 -69.5t-28.5 -69.5t-69.5 -28.5h-492q-41 0 -69.5 28.5t-28.5 69.5z" />
<glyph unicode="&#x2012;" d="M82 590q0 41 28.5 69.5t69.5 28.5h492q41 0 69.5 -28.5t28.5 -69.5t-28.5 -69.5t-69.5 -28.5h-492q-41 0 -69.5 28.5t-28.5 69.5z" />
<glyph unicode="&#x2013;" horiz-adv-x="1024" d="M-98 590q0 41 28.5 69.5t69.5 28.5h1024q41 0 69.5 -28.5t28.5 -69.5t-28.5 -69.5t-69.5 -28.5h-1024q-41 0 -69.5 28.5t-28.5 69.5z" />
<glyph unicode="&#x2014;" horiz-adv-x="2048" d="M-98 590q0 41 28.5 69.5t69.5 28.5h2048q41 0 69.5 -28.5t28.5 -69.5t-28.5 -69.5t-69.5 -28.5h-2048q-41 0 -69.5 28.5t-28.5 69.5z" />
<glyph unicode="&#x2018;" horiz-adv-x="393" d="M70 1049v98q0 59 33.5 110.5t89.5 73.5q18 8 36 9q17 0 34 -8q36 -15 52 -52q7 -17 7 -34q0 -18 -8 -36q-15 -35 -50 -51q-8 -4 -8 -12v-10q29 -8 47.5 -33t18.5 -55q0 -39 -27 -67t-66 -28h-65q-41 0 -67.5 28t-26.5 67z" />
<glyph unicode="&#x2019;" horiz-adv-x="393" d="M70 1237q0 39 26.5 65.5t67.5 26.5h65q39 0 66 -26.5t27 -65.5v-98q0 -61 -34 -111.5t-89 -73.5q-18 -8 -37 -8q-17 0 -34 7q-36 15 -50 51q-8 19 -9 37q0 17 8 34q15 35 50 51q8 4 8 13v8q-29 10 -47 34.5t-18 55.5z" />
<glyph unicode="&#x201a;" horiz-adv-x="391" d="M70 98q0 39 26.5 65.5t67.5 26.5h65q39 0 66 -26.5t27 -65.5v-98q0 -61 -34 -111.5t-89 -72.5q-18 -8 -37 -9q-17 0 -34 8q-36 15 -50 50q-8 19 -9 37q0 17 8 35q15 35 50 51q8 4 8 12v8q-29 10 -47 34.5t-18 55.5z" />
<glyph unicode="&#x201c;" horiz-adv-x="759" d="M70 1049v98q0 59 32.5 110.5t90.5 73.5q18 8 35 9l34 -8q35 -15 51 -52q8 -18 9 -36q0 -17 -8 -34q-15 -35 -50 -51q-8 -2 -8 -12v-10q29 -8 47.5 -33t18.5 -55q0 -39 -28 -67t-67 -28h-65q-39 0 -65.5 28t-26.5 67zM438 1049v98q0 59 33 110.5t90 73.5q18 8 36 9l34 -8 q35 -15 51 -52q8 -18 8 -36q0 -17 -7 -34q-15 -35 -50 -51q-8 -2 -8 -12v-10q29 -8 47 -33t18 -55q0 -39 -27.5 -67t-66.5 -28h-66q-39 0 -65.5 28t-26.5 67z" />
<glyph unicode="&#x201d;" horiz-adv-x="761" d="M72 1237q0 39 26.5 65.5t65.5 26.5h65q39 0 67 -26.5t28 -65.5v-98q0 -61 -34 -111.5t-89 -73.5q-19 -8 -38 -8q-17 0 -34 7q-35 15 -51 51q-8 19 -9 37q0 17 8 34q15 35 52 51q8 4 8 13v8q-29 10 -47 34.5t-18 55.5zM440 1237q0 39 27 65.5t65 26.5h66q39 0 66.5 -26.5 t27.5 -65.5v-98q0 -61 -33.5 -111.5t-89.5 -73.5q-19 -8 -37 -8q-17 0 -34 7q-35 15 -52 51q-8 19 -8 37q0 17 7 34q15 35 53 51q8 4 8 13v8q-29 10 -47.5 34.5t-18.5 55.5z" />
<glyph unicode="&#x201e;" horiz-adv-x="761" d="M70 98q0 39 27.5 65.5t66.5 26.5h65q39 0 66 -26.5t27 -65.5v-98q0 -61 -33 -111.5t-90 -72.5q-18 -8 -36 -9l-34 8q-35 15 -51 50q-8 19 -9 37q0 17 8 35q15 35 50 51q8 2 8 12v8q-29 10 -47 34.5t-18 55.5zM438 98q0 39 28 65.5t66 26.5h66q39 0 65.5 -26.5t26.5 -65.5 v-98q0 -61 -32.5 -111.5t-90.5 -72.5q-18 -8 -36 -9l-33 8q-35 15 -52 50q-8 19 -8 37q0 17 7 35q15 35 51 51q8 2 8 12v8q-29 10 -47.5 34.5t-18.5 55.5z" />
<glyph unicode="&#x2022;" horiz-adv-x="524" d="M31 577.5q0 47.5 18.5 89.5t50 73.5t73.5 50t89 18.5q49 0 91 -18.5t73 -50t49.5 -73.5t18.5 -89.5t-18.5 -89.5t-49.5 -73.5t-73 -50t-91 -18.5q-47 0 -89 18.5t-73.5 50t-50 73.5t-18.5 89.5zM207 577.5q0 -22.5 16.5 -39t39 -16.5t38.5 16.5t16 39t-16 39t-38.5 16.5 t-39 -16.5t-16.5 -39z" />
<glyph unicode="&#x2026;" horiz-adv-x="1179" d="M61 78q0 49 35 84t84 35t84 -35t35 -84t-35 -84t-84 -35t-84 35t-35 84zM471 78q0 49 35 84t84 35t84 -35t35 -84t-35 -84t-84 -35t-84 35t-35 84zM881 78q0 49 34.5 84t84 35t84 -35t34.5 -84t-34.5 -84t-84 -35t-84 35t-34.5 84z" />
<glyph unicode="&#x202f;" horiz-adv-x="362" />
<glyph unicode="&#x2039;" horiz-adv-x="489" d="M78 549q-13 24 -13 48t13 48l131 238q20 35 59 47q15 5 29 4q24 0 47 -12q49 -29 49 -86q0 -27 -12 -48l-41 -73l-34 -63l-30 -54q12 -25 32 -59l38 -68q23 -37 43 -80q12 -23 12 -47q0 -57 -49 -86q-23 -13 -47 -13q-14 0 -29 5q-39 12 -59 47z" />
<glyph unicode="&#x203a;" horiz-adv-x="489" d="M88 344q0 25 12 47q23 43 45 80l37 68q18 35 33 59l-32 54l-33 63l-41 73q-12 20 -13 48q0 57 51 86q35 20 75 8t59 -47l131 -238q27 -49 0 -96l-140 -252q-18 -35 -58 -47t-75 8q-51 29 -51 86z" />
<glyph unicode="&#x205f;" horiz-adv-x="452" />
<glyph unicode="&#x20ac;" d="M4 487q0 41 28.5 70t69.5 29h66v131h-66q-41 0 -69.5 28.5t-28.5 69.5t28.5 69.5t69.5 28.5h66v86q0 57 18.5 111.5t52 98.5t81 76t102.5 46q46 12 92 12q10 0 21 -1q57 -3 108 -24.5t94 -58t72 -88.5l20 -34q14 -23 14 -49q0 -13 -3 -26q-10 -40 -45 -61 q-22 -13 -47 -13q-14 0 -28 4q-40 11 -61 46l-20 35q-25 43 -72 63q-27 11 -54 11l-40 -6q-47 -12 -77.5 -52t-30.5 -90v-86h229q41 0 69.5 -28.5t28.5 -69.5t-28.5 -69.5t-69.5 -28.5h-229v-131h147q41 0 69.5 -29t28.5 -70t-28.5 -69.5t-69.5 -28.5h-147v-86 q0 -51 30.5 -90t77.5 -53q18 -5 37 -5l57 12q47 19 72 62l20 35q20 35 61 46q14 4 28 4q25 0 47 -13q35 -20 45 -60q3 -13 3 -26q0 -25 -14 -49l-20 -35q-29 -51 -72 -88t-94 -58.5t-108 -25.5q-11 -1 -23 -1q-46 0 -90 13q-55 14 -102.5 46t-81 76t-52 97.5t-18.5 112.5v86 h-66q-41 0 -69.5 28.5t-28.5 69.5z" />
<glyph unicode="&#x2122;" horiz-adv-x="1372" d="M25 1237q0 39 26.5 65.5t65.5 26.5h409q39 0 67 -26.5t28 -65.5t-28 -66.5t-67 -27.5h-110v-512q0 -39 -28 -66.5t-66.5 -27.5t-65.5 27.5t-27 66.5v512h-112q-39 0 -65.5 27.5t-26.5 66.5zM680 631v614q0 31 17.5 54.5t45.5 33.5q14 5 29 5t30 -5q30 -10 46 -35l43 -59 l41 -58l45 -63l46 63l42 58q23 31 41 59q18 25 47 35q14 5 29 5l28 -5q29 -10 47.5 -33.5t18.5 -54.5v-614q0 -39 -27.5 -66.5t-66.5 -27.5t-65.5 27.5t-26.5 66.5v323q-4 -6 -11 -14l-12 -16q-8 -8 -14 -19q-27 -41 -76 -41q-45 0 -76 41q-6 10 -14 19q-14 16 -21 30v-323 q0 -39 -27.5 -66.5t-66.5 -27.5t-65.5 27.5t-26.5 66.5z" />
<glyph unicode="&#xe000;" horiz-adv-x="970" d="M0 970h970v-970h-970v970z" />
<glyph unicode="&#xfb01;" horiz-adv-x="1015" d="M23 868q0 39 26.5 66t65.5 27h71v120q0 61 23.5 115.5t63.5 94.5t94.5 63.5t115.5 23.5q39 0 65.5 -26.5t26.5 -65.5t-26.5 -65.5t-65.5 -26.5q-47 0 -79.5 -33t-32.5 -80v-120h112q39 0 65.5 -27t26.5 -66t-26.5 -65.5t-65.5 -26.5h-112v-719q0 -39 -27 -65.5 t-65.5 -26.5t-65.5 26.5t-27 65.5v719h-71q-39 0 -65.5 26.5t-26.5 65.5zM698 1184q0 47 33 79.5t80 32.5t80 -32.5t33 -79.5t-33 -80t-80 -33t-80 33t-33 80zM719 57v820q0 39 26.5 65.5t65.5 26.5t65.5 -27t26.5 -65v-820q0 -39 -26.5 -65.5t-65.5 -26.5t-65.5 26.5 t-26.5 65.5z" />
<glyph unicode="&#xfb02;" horiz-adv-x="1015" d="M23 868q0 39 26.5 66t65.5 27h71v120q0 61 23.5 115.5t63.5 94.5t94.5 63.5t115.5 23.5q39 0 65.5 -26.5t26.5 -65.5t-26.5 -65.5t-65.5 -26.5q-47 0 -79.5 -33t-32.5 -80v-120h112q39 0 65.5 -27t26.5 -66t-26.5 -65.5t-65.5 -26.5h-112v-719q0 -39 -27 -65.5 t-65.5 -26.5t-65.5 26.5t-27 65.5v719h-71q-39 0 -65.5 26.5t-26.5 65.5zM713 199v1087q0 39 27.5 65.5t64.5 26.5q39 0 65.5 -26.5t26.5 -65.5v-1087q0 -41 37 -62q33 -20 43 -56q3 -12 3 -24q0 -24 -13 -47q-18 -33 -56 -42q-12 -3 -24 -3q-24 0 -45 12q-59 35 -94 94.5 t-35 127.5z" />
<glyph unicode="&#xfb03;" horiz-adv-x="1622" d="M23 868q0 39 26.5 66t65.5 27h71v120q0 61 23.5 115.5t63.5 94.5t94.5 63.5t115.5 23.5q39 0 65.5 -26.5t26.5 -65.5t-26.5 -65.5t-65.5 -26.5q-47 0 -79.5 -33t-32.5 -80v-120h112q39 0 65.5 -27t26.5 -66t-26.5 -65.5t-65.5 -26.5h-112v-719q0 -39 -27 -65.5 t-65.5 -26.5t-65.5 26.5t-27 65.5v719h-71q-39 0 -65.5 26.5t-26.5 65.5zM629 868q0 39 26.5 66t65.5 27h72v120q0 61 23.5 115.5t63.5 94.5t94 63.5t116 23.5q39 0 65.5 -26.5t26.5 -65.5t-27 -65.5t-65 -26.5q-47 0 -80 -33t-33 -80v-120h113q39 0 65.5 -27t26.5 -66 t-27 -65.5t-65 -26.5h-113v-719q0 -39 -26.5 -65.5t-65.5 -26.5t-65.5 26.5t-26.5 65.5v719h-72q-39 0 -65.5 26.5t-26.5 65.5zM1305 1184q0 47 32.5 79.5t79.5 32.5t80 -32.5t33 -79.5t-33 -80t-80 -33t-79.5 33t-32.5 80zM1325 57v820q0 39 26.5 65.5t65.5 26.5t65.5 -27 t26.5 -65v-820q0 -39 -26.5 -65.5t-65.5 -26.5t-65.5 26.5t-26.5 65.5z" />
<glyph unicode="&#xfb04;" horiz-adv-x="1622" d="M23 868q0 39 26.5 66t65.5 27h71v120q0 61 23.5 115.5t63.5 94.5t94.5 63.5t115.5 23.5q39 0 65.5 -26.5t26.5 -65.5t-26.5 -65.5t-65.5 -26.5q-47 0 -79.5 -33t-32.5 -80v-120h112q39 0 65.5 -27t26.5 -66t-26.5 -65.5t-65.5 -26.5h-112v-719q0 -39 -27 -65.5 t-65.5 -26.5t-65.5 26.5t-27 65.5v719h-71q-39 0 -65.5 26.5t-26.5 65.5zM629 868q0 39 26.5 66t65.5 27h72v120q0 61 23.5 115.5t63.5 94.5t94 63.5t116 23.5q39 0 65.5 -26.5t26.5 -65.5t-27 -65.5t-65 -26.5q-47 0 -80 -33t-33 -80v-120h113q39 0 65.5 -27t26.5 -66 t-27 -65.5t-65 -26.5h-113v-719q0 -39 -26.5 -65.5t-65.5 -26.5t-65.5 26.5t-26.5 65.5v719h-72q-39 0 -65.5 26.5t-26.5 65.5zM1319 199v1087q0 39 27.5 65.5t64.5 26.5q39 0 65.5 -26.5t26.5 -65.5v-1087q0 -41 37 -62q33 -20 43 -56q3 -12 4 -24q0 -24 -14 -47 q-18 -33 -55 -42q-12 -3 -25 -3q-24 0 -45 12q-59 35 -94 94.5t-35 127.5z" />
</font>
</defs>
</svg>
